<?xml version="1.0" encoding="UTF-8" standalone="no"?>
<!DOCTYPE svg PUBLIC "-//W3C//DTD SVG 1.1//EN" "http://www.w3.org/Graphics/SVG/1.1/DTD/svg11.dtd">
<!-- Created with Vectornator (http://vectornator.io/) -->
<svg height="172.0pt" stroke-miterlimit="10" style="fill-rule:nonzero;clip-rule:evenodd;stroke-linecap:round;stroke-linejoin:round;" version="1.1" viewBox="0 0 100 172" width="100.0pt" xml:space="preserve" xmlns="http://www.w3.org/2000/svg" xmlns:xlink="http://www.w3.org/1999/xlink">
<defs/>
<g id="Layer-1">
<path d="M80.2434 155.541C80.4848 155.864 80.606 156.205 80.606 156.565C80.606 158.306 77.5618 159.723 73.8079 159.723C70.0529 159.723 66.9923 158.306 66.9923 156.565C66.9923 153.764 72.9934 153.154 74.4642 153.333C76.1085 153.513 77.5618 153.836 79.1003 154.626L79.1003 153.136C78.3567 152.849 77.4231 152.58 76.6611 152.454C73.3745 152.041 68.9458 152.041 66.0566 154.536C65.9704 154.589 65.8666 154.662 65.7454 154.769C64.2572 156.061 64.4308 157.265 64.8632 158.306C65.1929 159.094 66.6102 160.064 67.3189 160.513L67.3189 160.531C67.3374 160.531 67.3713 160.549 67.3898 160.566C67.5962 160.692 67.7174 160.764 67.7174 160.764L67.7174 160.729C70.7277 162.254 73.5306 162.057 76.6272 161.751C80.2599 161.105 82.9066 159.257 82.9066 157.102C82.9066 155.469 81.3157 154.231 80.2434 153.639C80.2434 154.195 80.2434 154.913 80.2434 155.541ZM35.1939 92.9734L35.1939 97.5684C35.7303 97.5143 36.2662 97.4781 36.8372 97.4781C37.3387 97.4781 37.8406 97.4958 38.3424 97.55L38.4287 92.7577L35.1939 92.9734ZM34.5708 96.8324L34.5708 93.0448C33.914 93.4577 30.5921 95.863 30.6094 98.4471C30.2114 102.288 33.8446 104.963 34.779 105.231C38.4468 106.165 51.2309 110.508 51.9229 116.001C52.822 125.55 43.2378 130.934 36.7509 130.969L36.2662 136.408C36.2662 136.408 38.3424 140.698 45.1071 143.103C49.3107 144.001 51.8186 143.749 53.3933 143.211C55.0888 142.529 57.494 140.967 58.6176 139.227C58.8261 138.491 58.9638 137.79 59.085 137.234C58.9977 133.034 56.0572 125.944 53.445 119.968C54.016 117.042 53.8085 114.152 53.0643 112.357C52.13 110.437 51.7845 109.539 48.7567 107.332C44.3283 104.101 36.0938 102.199 34.3116 100.224C33.6196 99.2735 33.7235 97.1906 34.5708 96.8324ZM59.0511 73.1226C59.7597 73.9481 60.3472 74.7376 60.8669 75.635C65.158 76.8728 68.9807 78.2729 72.2683 79.4756C72.1974 70.7531 70.8664 61.8866 67.0437 53.4693L59.0511 73.1226ZM58.2037 140.375C57.0257 141.882 54.9155 143.031 53.3243 143.713C42.8402 146.441 35.9031 137.575 35.7303 136.624C35.5569 135.726 36.111 131.742 36.2146 131.023C35.9031 131.005 35.5056 131.023 35.1939 131.005C35.1589 131.509 34.6399 136.246 34.6399 136.714C36.2839 139.603 36.9234 140.446 40.6606 142.816C44.1554 144.628 49.3452 145.742 53.4968 144.378C53.5149 144.378 54.1023 144.108 53.5667 144.359C55.521 143.498 56.2472 142.923 56.7843 142.349C57.3893 141.793 58.2366 140.5 58.2037 140.375ZM76.471 151.915C77.267 152.041 78.0281 152.239 78.7378 152.472L79.0675 152.22L79.0675 152.239L79.049 152.239L79.049 143.175L79.0315 143.175L79.0315 143.139L73.3395 143.139L76.471 151.915ZM81.1421 153.584C81.782 153.998 82.3356 154.464 82.769 154.985L83.9275 153.584L81.1421 153.584ZM83.529 156.277C83.6677 156.654 83.7539 157.067 83.7539 157.48C83.7539 160.406 79.9826 162.828 75.1215 163.205L71.3162 166.185L65.0881 166.185L65.3131 169.362L63.7909 172L52.061 171.982L51.4038 170.779L39.6227 170.707L38.9134 168.231L32.6158 168.015L28.7755 165.969L28.6375 163.277L28.9484 160.315L21.1292 160.297L19.4164 157.265L18.9322 156.511L18.9322 153.459L20.2293 149.762L15.4723 149.6C14.4516 151.001 12.2367 152.149 7.91213 152.167C0.593903 151.952-0.634154 148.128 0.248092 145.544C0.905616 144.198 3.17162 143.767 3.63904 143.551L3.63904 96.7782L8.10234 90.8194L9.00184 91.0889L13.4651 97.0472L13.4651 134.864L14.6932 134.882C14.0015 133.322 13.3444 131.705 12.7385 130.054L9.07076 133.967L9.01909 134.003L9.38216 134.811L12.3233 134.847L12.3233 97.8551L8.20587 92.3084L4.55538 96.9038L4.55538 143.408C6.87428 143.139 9.07076 143.228 11.3548 143.533L10.9569 141.111L15.1433 136.426L13.4651 136.373C13.4651 136.355 13.4651 143.211 13.4651 144.001C13.1537 143.947 12.6519 143.857 12.3233 143.821L12.3233 136.336L6.68325 136.175L6.38961 135.367L6.25116 134.936L5.12622 131.778L5.1784 131.814L4.95337 131.131L5.7666 128.35L10.351 122.444C10.2647 122.14 10.1958 121.816 10.1091 121.493L2.35881 120.99L1.83963 119.95L1.68362 119.968L0.956969 116.072L2.25487 113.883L7.65218 108.247C7.51414 107.026 7.39295 105.788 7.27186 104.532L2.6356 101.678L2.5141 101.66L0.368874 100.834L0.368874 97.2806L2.30663 95.7189L4.26164 94.7499L6.9433 91.3037C6.9433 90.8913 6.97781 90.2809 6.99496 89.8681L1.04406 90.46C1.04406 90.46 2.98141 88.8449 6.09556 86.5833L2.35881 84.4478L0.819035 82.8321L1.23428 78.4353L3.51743 77.9316L8.20587 77.8607C8.4309 76.4245 8.69002 75.0069 8.98458 73.6068L8.98458 84.5374C9.34806 84.2867 9.71113 84.0348 10.0742 83.783L10.0742 76.8913L13.8804 76.3166L13.8804 81.325C14.2439 81.0917 14.6065 80.8758 14.9877 80.6435L14.9877 76.1552L18.3092 75.671L18.3092 78.7221C18.6722 78.5062 19.0357 78.3089 19.4164 78.1115L19.4164 75.4911L23.8452 74.8455L23.8452 75.9044C24.2079 75.743 24.5718 75.5816 24.9521 75.4202L24.9521 74.6841L27.9274 74.2164C30.1769 73.3909 32.4256 72.7638 34.5881 72.3866L34.5881 67.5046C34.0521 67.4326 33.3083 67.2178 33.1522 66.6246C32.8059 65.4044 32.9103 64.435 33.7235 63.591C33.5674 62.9269 32.8236 62.4253 32.1836 62.1559L32.1836 57.0406L36.2839 56.0887L37.6331 60.0382L39.0694 60.0557L37.7194 55.8378L38.8094 55.6045L43.5151 69.9636C45.3489 70.1969 47.1652 70.089 48.9641 70.5917L49.5704 69.4434C47.9607 69.245 46.3696 68.9767 44.7608 69.1381L40.2281 55.2817L41.4734 54.9764L42.3387 57.7581L55.4001 54.8684L56.923 51.1532L60.9018 50.0944L51.9229 73.4814C52.4594 73.5883 53.0126 73.7147 53.5667 73.8227L62.5626 49.6997L64.4133 49.2504C64.8981 50.813 64.7944 51.9427 63.9984 53.7376L55.7973 74.3603C56.2646 74.4683 56.7494 74.5937 57.2167 74.7191L65.7454 53.3429C66.4202 51.7813 66.3514 50.3997 65.6756 48.9461L82.4054 44.9976L87.0939 47.6899L94.0317 45.9845L86.8166 41.7306L32.2009 55.1563L32.2009 50.2918L33.9309 49.8251L33.9309 46.5231L30.54 45.3738L30.54 43.9562L33.9309 45.1939L33.9309 31.7508L30.54 29.9919L30.54 28.5568L33.9309 30.3692L33.9309 19.6358L34.6751 19.2411L34.6751 18.1822L30.54 16.0286L30.54 14.611L34.6751 16.8181L34.6751 5.81642L30.4883 3.26698L30.4883 14.467L24.9521 16.5498L24.9521 3.84163L30.4883 1.20276L45.0376 10.2492L45.0376 20.928L46.0061 21.4852L46.0061 14.3231L56.4906 10.8773L65.4342 16.3154L65.4342 32.0921C65.2956 35.8073 61.7841 37.2609 57.6142 38.4636L57.6142 43.8308L66.0053 41.7121L66.0053 6.91021L72.371 4.5232L78.4091 8.09549L78.4091 2.13618L84.3435 0L84.3435 0.198404L91.9376 4.25386L91.9376 39.0732L96.1074 41.7121L96.1074 47.4021L87.3353 49.3039L97.4221 55.0298L97.3173 59.589L96.6949 61.3119L91.3326 66.6421L91.2628 67.1993L91.9715 67.1273L99.8439 70.8065L99.8439 77.6633L92.5425 80.8049L92.5425 85.1301L100 88.0731L100 94.8398L92.8024 96.2225L92.8373 101.158L99.3242 106.112L99.1167 112.645L91.8513 112.232L90.8304 116.127L96.4874 122.857L96.4012 128.277L95.3977 129.229L87.8201 128.565L87.8375 130.432L92.9934 138.616L92.9934 140.339L91.1755 144.862L82.8378 144.862L85.6571 152.938L85.6571 154.231L83.529 156.277ZM72.7521 163.223C70.7452 163.097 68.9108 162.613 67.4411 161.912L67.5613 163.097L65.1929 164.677L70.9526 164.677L72.7521 163.223ZM65.4342 154.357C66.0217 153.836 66.7489 153.369 67.5962 152.974L67.5962 94.3371L68.8759 91.8784L68.8595 91.8784L69.8968 89.9757L69.8804 89.9757L72.9595 84.1253L74.7415 83.7655L80.2434 93.0995L80.2434 124.114L80.2773 124.114L80.2773 124.131L86.4705 128.296L86.5743 128.296L86.5743 129.48L80.2773 129.48L80.2773 129.516L80.2434 129.516L80.2434 141.255L79.049 141.255L79.049 93.7986L73.9969 85.1831L71.4723 89.7424L70.1053 92.2011L68.9293 94.3371L68.6869 147.447L68.6869 149.277L68.6869 150.408L67.5788 150.946C67.0437 152.239 65.9016 152.113 65.0707 153.406L65.4342 154.357ZM74.8801 155.685L68.3573 155.685C68.9458 154.644 71.0738 153.854 73.5994 153.854C76.5748 153.854 78.9976 154.931 78.9976 156.277C78.9976 157.606 76.5748 158.682 73.5994 158.682C70.7616 158.682 68.4271 157.695 68.2186 156.456L74.8801 156.456L74.8801 155.685ZM80.226 152.185L80.2434 152.185L80.2434 143.175L80.2773 143.175L80.2773 143.139L80.6923 143.139L80.9347 143.426L83.7539 152.185L80.226 152.185ZM79.0315 141.739L79.0315 141.326L75.3115 137.216C74.5515 138.778 73.7545 140.303 72.9082 141.739L79.0315 141.739ZM71.1262 91.7703L72.1974 89.8319L73.0119 89.7605C73.0807 90.2094 73.1156 91.0347 73.0982 91.6093L71.1262 91.7703ZM69.1193 90.0299L67.9947 91.9856L53.7047 93.0448C53.4286 95.0013 52.9435 97.2267 52.3205 98.6804L64.5345 133.842C64.552 133.878 64.552 133.896 64.552 133.932C64.4483 134.129 64.3271 134.344 64.2233 134.559C63.8598 134.775 63.3586 134.828 63.2363 134.469L51.3352 100.691C50.7816 101.607 50.037 103.419 49.1547 104.03C48.9127 103.581 47.9784 102.234 47.6498 101.948C50.4525 97.909 52.0958 91.0347 50.7816 85.4344L53.445 85.1831C53.7913 87.2652 54.0854 88.8626 53.8085 91.1784L69.1193 90.0299ZM8.51717 144.683C7.13341 144.664 3.06768 144.61 2.65244 146.029C2.22036 147.465 4.36558 148.99 8.20587 148.954C9.78015 148.954 12.6867 148.811 13.5345 147.015C14.0015 145.885 12.3405 145.293 11.5967 145.095L11.614 145.113C10.4898 144.844 9.2092 144.701 8.51717 144.683ZM14.2611 149.565L14.2952 149.565C14.1572 149.672 14.0187 149.762 13.8627 149.851C13.2059 150.264 12.6001 150.425 12.6001 150.425C11.3889 150.839 9.88398 151.036 7.94623 151.036C2.32347 151.072 0.334365 147.572 1.23428 145.742C2.15093 143.911 6.92563 143.983 8.95008 144.019C9.55501 144.036 10.5761 144.108 11.4759 144.27L11.4759 144.288C13.0499 144.539 15.0398 144.952 15.4374 146.513C15.4888 146.657 15.5237 146.8 15.5237 146.944C15.5237 147.087 15.5064 147.285 15.4723 147.465C15.3507 148.433 14.832 149.116 14.2611 149.565ZM3.56961 146.154L8.84614 146.154L8.84614 146.674L3.6567 146.674C4.07112 147.411 5.71483 148.093 8.18861 148.093C10.022 148.075 11.6312 147.608 12.3578 147.213L12.3233 145.885C11.2854 145.364 9.1751 145.005 8.46541 145.131C7.30637 145.113 3.95034 145.078 3.58645 146.046C3.58645 146.082 3.56961 146.119 3.56961 146.154ZM16.06 148.307C16.1294 147.824 16.1812 147.178 16.1812 146.728C16.1639 146.244 15.8872 145.742 15.5934 145.382L18.8455 142.888C19.6411 144.198 20.4711 145.435 21.3197 146.621L20.7312 148.307L16.06 148.307ZM9.72797 119.968L5.36861 119.897L3.86366 119.77L4.78082 119.699L9.1751 117.473C9.34806 118.316 9.53817 119.142 9.72797 119.968ZM7.18517 103.275L5.40343 102.414L7.13341 102.665C7.15066 102.863 7.16792 103.06 7.18517 103.275ZM29.1563 158.736L22.8415 158.79L23.6375 157.354L25.9555 152.131C27.1318 153.315 28.3262 154.393 29.5715 155.362L29.1563 158.736ZM38.9134 166.615L32.9793 166.472L33.896 164.192L34.7264 158.772C35.9549 159.365 37.6331 159.938 38.9134 160.315L38.9134 166.615ZM43.3249 169.218L50.487 169.182L50.0197 168.339L49.5009 160.943C48.2034 161.177 46.8883 161.302 45.5391 161.302C45.2622 161.302 44.9682 161.285 44.6918 161.285L44.051 167.566L43.3249 169.218ZM55.9709 159.938L60.833 159.938L59.656 156.707C58.4615 157.516 57.2342 158.216 55.9884 158.826L55.9709 159.938ZM61.3856 161.447L55.9534 161.447L56.0746 168.033L55.6422 170.366L62.5102 170.366L63.8248 168.607L63.1675 164.425L61.8529 162.757L61.3856 161.447ZM80.416 130.647L86.3842 130.647L91.4528 138.724L84.2048 138.724L82.8203 135.869L80.416 130.647ZM84.2048 140.231L91.6264 140.231L90.1731 143.839L82.9066 143.732L84.2048 140.231ZM90.4144 112.071L89.2908 115.804L82.3705 115.122C82.7166 113.237 83.0278 111.334 83.2712 109.377L90.3107 112.052L90.4144 112.071ZM83.3226 116.396L89.8444 117.132L94.9479 122.677L87.9762 121.906L83.3226 116.396ZM87.9937 123.324L95.1903 123.88L94.9828 128.026L87.6475 127.344L87.9937 123.324ZM91.6438 96.1863L91.6787 101.104L84.0662 100.296C84.1535 98.5728 84.1863 96.8139 84.1863 95.0555C84.1863 94.7861 84.1863 94.5166 84.1863 94.2656L91.6438 96.1863ZM85.503 101.607L92.0413 102.27L96.7473 105.644L90.398 104.765L85.503 101.607ZM91.2464 106.291L98.1482 106.919L98.0445 111.424L90.8479 110.58L91.2464 106.291ZM8.98458 48.8916L8.50033 48.9461L6.73542 53.2534L8.98458 56.0712L8.98458 48.8916ZM8.98458 64.1472L4.64196 62.7121L3.22339 67.6115L8.98458 73.319L8.98458 64.1472ZM14.6932 89.0782C14.5724 91.1607 14.6065 92.8477 14.6065 95.0555C14.6065 125.352 27.7721 150.067 43.8958 150.067C49.5354 150.067 54.8292 147.015 59.3273 141.739C59.3099 141.757 59.2924 141.757 59.275 141.757C59.5862 141.38 59.9323 140.967 60.2096 140.609C60.227 140.609 60.2435 140.609 60.2435 140.626C60.4694 140.321 60.6944 140.034 60.9193 139.728C60.9706 139.674 60.9881 139.639 60.9881 139.639C61.1606 139.406 61.3342 139.173 61.5068 138.921C61.1956 139.1 60.8669 139.262 60.5557 139.423C60.4869 139.513 60.4345 139.603 60.3647 139.693C60.3133 139.728 60.2784 139.765 60.2435 139.819C60.0884 140.159 57.3205 143.157 57.3205 143.157C57.3205 143.157 57.3379 143.157 57.3728 143.175C54.6904 145.723 50.7816 148.146 45.954 147.895C36.3697 147.392 30.6094 139.783 29.8306 139.011C29.0696 138.239 29.537 137.683 29.537 137.683L32.6158 130.36C32.2182 130.252 31.8202 130.108 31.4222 129.964C30.9725 130.916 28.8963 135.439 28.5336 136.121C28.1183 136.893 27.288 136.265 27.288 136.265C27.288 136.265 26.388 134.99 26.1461 134.434C25.921 133.878 26.388 132.944 26.388 132.944L28.741 128.618C28.3776 128.386 28.0145 128.152 27.6687 127.882L25.2811 132.693C19.6411 122.103 17.0289 107.835 17.0289 95.5759L31.5779 94.535C32.0971 93.942 33.3255 92.7758 33.758 92.543L17.1329 93.7629L17.1329 88.7911L14.6932 89.0782ZM65.7629 131.526C65.9868 131.023 66.2302 130.521 66.4541 130.001L57.4242 103.94C58.6176 101.266 59.4311 98.3042 59.7772 95.2527L57.8052 95.3603C57.3379 97.9632 56.5255 100.565 55.5036 102.988L65.3819 131.275C65.4517 131.436 65.5904 131.509 65.7629 131.526ZM67.0252 128.655C70.8664 119.339 73.1495 107.691 73.1495 95.0555C73.1495 94.8037 73.1156 94.6965 73.1156 94.4627L63.0987 95.0728C62.7865 99.0044 61.4379 103.957 59.8285 106.74L67.0252 128.655ZM41.8546 10.1052L41.8546 19.1341L43.6362 20.12L43.6362 11.1281L41.8546 10.1052ZM40.9205 18.5595L40.9205 9.5131L39 8.31035L39 17.3033L40.9205 18.5595ZM37.9268 17.5366L37.8927 7.7727L35.6958 6.40855L35.6958 17.2673L36.9929 18.0568L37.9268 17.5366ZM23.8452 4.3803L19.4164 6.49696L19.4164 18.6315L23.8452 16.961L23.8452 4.3803ZM18.3092 7.01815L14.9877 8.59819L14.9877 20.2999L18.3092 19.0622L18.3092 7.01815ZM13.8804 9.13583L10.0742 10.9492L10.0742 22.1482L13.8804 20.7306L13.8804 9.13583ZM10.0742 23.5309L10.0742 35.503L13.8804 34.2108L13.8804 22.0948L10.0742 23.5309ZM10.0742 36.8671L10.0742 49.053L13.8804 48.1196L13.8804 35.5739L10.0742 36.8671ZM10.0742 50.3997L10.0742 61.94L13.8804 61.2585L13.8804 49.4663L10.0742 50.3997ZM10.0742 63.2682L10.0742 75.5631L13.8804 75.0069L13.8804 62.5866L10.0742 63.2682ZM10.0742 86.548L10.0742 87.7141L8.01565 87.9298C8.01565 87.9298 8.77671 87.4093 10.0742 86.548ZM13.8804 87.3375L13.8804 84.1253C14.2266 83.9094 14.6065 83.6935 14.9877 83.4602L14.9877 87.2294L13.8804 87.3375ZM18.3092 86.8886L18.3092 81.5399C18.6722 81.3425 19.0357 81.1451 19.4164 80.9477L19.4164 86.7805L18.3092 86.8886ZM23.8452 86.3143L23.8452 81.8452L24.9521 82.2759L24.9521 86.2067L23.8452 86.3143ZM23.8452 79.9424L23.8452 78.6861C24.2079 78.5247 24.5718 78.3448 24.9521 78.1835L24.9521 80.3731L23.8452 79.9424ZM30.4883 85.6505L30.4883 84.4478L32.893 85.3987L30.4883 85.6505ZM30.4883 82.5093L30.4883 75.9589C30.6266 75.9044 30.7823 75.8499 30.9383 75.7964L35.0731 84.2867L30.4883 82.5093ZM30.4883 72.5295L30.4883 59.625L24.9521 60.6119L24.9521 73.356L30.4883 72.5295ZM30.4883 58.2968L30.4883 45.4098L24.9521 46.7565L24.9521 59.2837L30.4883 58.2968ZM30.4883 44.0631L30.4883 29.9384L24.9521 31.8053L24.9521 45.4098L30.4883 44.0631ZM30.4883 28.5568L30.4883 15.8312L24.9521 17.9314L24.9521 30.4411L30.4883 28.5568ZM23.8452 73.5174L23.8452 60.8092L19.4164 61.5998L19.4164 74.1815L23.8452 73.5174ZM18.3092 74.3428L18.3092 61.7971L14.9877 62.3893L14.9877 74.827L18.3092 74.3428ZM23.8452 59.4811L23.8452 47.0258L19.4164 48.1196L19.4164 60.2716L23.8452 59.4811ZM18.3092 60.469L18.3092 48.39L14.9877 49.197L14.9877 61.0611L18.3092 60.469ZM23.8452 45.6966L23.8452 32.1825L19.4164 33.6896L19.4164 46.774L23.8452 45.6966ZM18.3092 47.0433L18.3092 34.0669L14.9877 35.1977L14.9877 47.8503L18.3092 47.0433ZM23.8452 30.8174L23.8452 18.3436L19.4164 20.0131L19.4164 32.3254L23.8452 30.8174ZM18.3092 32.7027L18.3092 20.4253L14.9877 21.6815L14.9877 33.8325L18.3092 32.7027ZM72.4234 6.30061L78.4091 9.99729L78.4091 16.9795L72.4234 6.30061ZM72.0424 39.9892L80.4673 37.854L72.0424 23.6029L72.0424 39.9892ZM84.3435 36.974L87.0241 36.202L90.4843 38.2128L90.4843 5.58306L84.3435 2.36954L84.3435 36.974ZM46.0061 22.8668L38.8439 18.9357L38.8439 48.5874L46.0061 46.774L46.0061 22.8668ZM51.2657 45.4633L56.4906 44.1176L56.4906 38.7155L51.2485 35.2686L51.2657 45.4633ZM52.5805 33.9404L57.0606 36.8671C59.7772 36.166 63.0638 35.3231 64.2059 32.3614L64.2059 17.2488L58.7388 14.1977L58.7388 31.0332C58.6351 32.272 55.8158 33.2763 52.5805 33.9404ZM51.127 19.6358L53.3584 18.7209L53.3584 27.5874L51.127 28.4848L51.127 19.6358ZM85.9344 93.5653L91.8153 94.947L97.2485 94.3732L91.4014 92.7397L85.9344 93.5653ZM91.9889 91.0889L98.8579 93.3854L98.9267 89.0963L92.18 86.5299L91.9889 91.0889ZM91.1755 84.7349L91.1755 80.9837L84.2562 78.3089C84.1535 78.3634 84.0323 78.4353 83.9275 78.5062C84.0487 80.553 84.0662 82.5997 83.9789 84.6274L84.1863 84.7349L91.1755 84.7349ZM85.6571 77.2326L91.6438 79.781L98.3033 77.0886L91.1591 74.092C89.7407 75.1324 87.4565 76.1912 85.6571 77.2326ZM91.6603 72.6374L98.823 75.8149L98.823 71.8119L91.9201 68.7423L91.6603 72.6374ZM88.6684 51.2972L96.3488 55.7659L96.3488 58.6916L88.7198 54.3298L88.6684 51.2972ZM96.0027 60.0917L90.4678 65.4764L83.4612 61.5998L88.7372 56.1072L96.0027 60.0917ZM82.4752 63.0349L89.6534 66.8405L89.6195 67.3792L87.4565 67.5406L82.5615 68.6179C82.6653 66.7511 82.6303 64.9017 82.4752 63.0349ZM30.6094 126.052C30.6094 126.052 32.0802 125.585 31.4571 125.226C30.8337 124.868 29.4844 124.868 28.9484 124.509C28.4125 124.131 28.2564 123.683 29.0178 123.593C29.7965 123.485 29.9868 123.306 30.0554 122.57C30.1424 121.834 30.0554 119.088 30.0554 119.088C30.0554 119.088 29.5193 118.567 28.9484 118.191C29.0006 119.286 29.0351 119.878 28.9312 119.501C28.8795 119.609 28.5681 118.729 28.2913 117.831C28.2391 117.814 28.1697 117.796 28.1183 117.796C28.0835 117.796 28.0317 117.777 28.0145 117.777C27.5997 117.706 27.2009 117.634 26.8205 117.562C27.0111 119.25 27.2009 120.362 27.0628 119.86C26.9934 120.004 26.5091 118.477 26.1802 117.418C25.852 117.347 25.5576 117.257 25.2811 117.186C25.6618 118.801 25.9555 119.968 25.6097 119.77C25.5062 119.95 24.831 117.886 24.5369 116.952C23.2739 116.504 22.5646 116.001 22.5646 115.463C22.5646 114.978 23.136 114.512 24.1565 114.116C24.122 113.65 24.0868 113.183 24.0868 112.932C24.0868 112.393 24.0178 111.191 24.0178 111.191C24.0178 111.191 24.5541 110.006 24.7969 109.271C25.0215 108.534 25.8689 109.09 25.0215 110.275C24.433 111.012 24.433 112.411 24.6408 113.937C24.9866 113.812 25.3846 113.704 25.8175 113.596C25.7998 113.363 25.7998 113.165 25.7998 113.021C25.7998 112.483 26.025 111.927 26.025 111.927C26.025 111.927 26.2668 110.096 26.4916 109.36C26.7166 108.624 28.9657 107.153 27.2707 109.271C26.6821 109.988 26.5091 111.64 26.544 113.434C26.9589 113.327 27.4086 113.255 27.8933 113.165C27.8933 113.004 27.8933 112.86 27.8933 112.752C27.8933 112.196 28.2046 111.927 28.2046 111.927C28.2046 111.927 28.741 108.804 28.9829 108.068C29.208 107.35 31.4571 105.878 29.7444 107.978C29.1041 108.786 28.8795 110.85 28.8273 113.021C29.8306 112.878 30.9208 112.752 32.0802 112.68C32.5989 110.222 33.8269 108.84 34.9861 106.811C31.8029 105.644 29.7793 101.911 29.7444 99.9192C24.831 102.611 21.5621 108.014 21.5621 114.224C21.5621 123.072 28.4125 130.306 36.8372 130.306C42.1486 130.306 52.857 125.155 50.7294 116.773C49.8985 117.096 48.5665 117.4 47.2342 117.652C46.8369 118.496 45.8159 120.685 45.712 120.506C45.0894 120.793 45.8159 119.429 46.3183 117.814C45.5736 117.939 44.778 118.029 43.9304 118.119C43.9304 118.137 43.9135 118.155 43.9135 118.173C43.4457 118.801 42.754 119.537 42.754 119.537C42.754 119.537 42.9787 121.745 42.4422 121.834C41.8887 121.924 41.6635 122.391 41.6635 122.391L40.1936 124.4C40.1936 124.4 39.6572 125.226 38.9479 125.585C38.2558 125.962 37.7194 127.524 37.7194 127.524C45.9199 128.529 49.5354 119.393 49.3801 119.016C49.3801 119.016 50.3137 118.747 49.4492 120.398C47.6847 125.836 43.1175 129.013 36.4219 129.049C35.0554 129.013 34.4673 128.996 34.5018 128.726C33.6372 129.301 33.4984 127.667 33.4984 127.667L34.5536 126.052C34.5536 126.052 35.0033 125.495 35.1589 123.665C35.2284 122.839 35.713 122.229 36.1973 121.816C36.0761 121.87 35.9722 121.906 35.8682 121.924C35.2456 122.014 34.3979 123.844 34.4673 124.491C34.5536 125.137 34.156 126.052 33.4639 126.321C32.7718 126.608 32.6158 127.703 32.6158 127.703C32.6158 127.703 31.8202 128.152 31.0591 128.152C30.54 128.17 25.056 124.904 27.0628 124.562C28.1356 124.383 30.6094 126.052 30.6094 126.052ZM85.7783 50.2198L85.7783 48.4249L81.972 46.3967L78.443 48.3715C79.2051 50.3463 79.7238 52.284 80.035 54.4017L85.7783 50.2198ZM57.874 77.0177C58.2541 78.0221 58.9288 79.5116 59.4485 82.7067L57.4766 82.904C57.4417 82.096 56.1445 77.6633 55.2104 76.3166L57.874 77.0177ZM62.7516 82.3304C62.7177 81.6838 62.3377 79.5301 61.7666 78.1475C67.4935 79.7984 71.8698 81.396 71.8698 81.396L62.7516 82.3304ZM50.8325 78.13C51.5073 79.1529 52.3378 80.481 52.9957 83.3533L50.3137 83.6401C49.933 82.132 49.4319 80.4265 48.6528 79.5476L50.8325 78.13ZM42.7712 59.3197L54.6904 56.6273L50.1235 68.2941C48.4802 68.1327 46.8883 67.9528 45.3313 67.9713L42.7712 59.3197ZM35.1762 62.9639L35.1762 60.9891L38.3424 60.9891L38.3424 62.9989C37.5986 62.8375 36.0243 62.8015 35.1762 62.9639ZM40.1759 64.8472L40.5394 64.4895L42.8924 72.1347C42.4772 72.0998 41.8196 72.0813 41.4044 72.0453L39.7956 66.7871C40.0897 66.3378 40.5743 65.4404 40.1759 64.8472ZM51.4728 109.145C50.6949 106.83 49.4833 105.071 47.8576 103.15C45.0894 100.063 41.1624 98.1423 36.8372 98.1423C36.0243 98.1423 35.2456 98.2145 34.4673 98.3398C34.4501 98.9494 34.5191 99.5964 34.848 99.9192C39.8305 103.347 47.269 103.867 51.4728 109.145ZM30.1248 96.8678L23.4468 97.2806C23.1187 99.9012 23.4127 105.034 23.4127 105.034L23.3778 105.303C24.9348 102.737 27.1146 100.637 29.7272 99.2554C29.7096 98.3937 29.8134 97.64 30.1248 96.8678ZM38.4636 67.6475C38.3773 67.594 38.2731 67.5581 38.1868 67.5046C37.7716 67.2887 37.1135 66.858 36.7681 66.894C36.4909 66.9299 35.713 67.3072 35.2629 67.4501L35.2629 72.2786C35.7993 72.2067 36.3356 72.1347 36.8717 72.0998C37.3736 72.0453 37.8927 72.0278 38.4118 72.0103L38.4636 67.6475ZM38.8957 66.5712C38.2386 66.4088 37.3214 65.7097 36.6987 65.7817C36.4396 65.8177 35.6436 66.2299 35.3668 66.2659C35.0899 66.2844 34.0866 66.1939 33.914 65.5843C33.758 64.9737 33.7235 65.1351 33.9481 64.5429C34.2249 64.1297 34.7441 63.4656 35.3668 63.5386C36.111 63.3762 38.2558 63.4841 38.5844 63.6815C38.9306 63.8963 39.5536 64.4895 39.5536 65.243C39.5536 65.979 38.8957 66.5712 38.8957 66.5712ZM35.9894 67.8993L35.5918 67.8993L35.5918 70.897L35.9894 70.897L35.9894 67.8993ZM35.9894 71.2917L35.5918 71.2917L35.5918 71.632L35.9894 71.632L35.9894 71.2917ZM35.0206 79.7984L36.2146 79.7984L36.2146 74.5042C36.6987 74.4323 37.1657 74.3778 37.6159 74.3428C37.8927 74.3243 38.1868 74.3069 38.4636 74.2884L38.3773 79.8704L36.7854 83.783L35.0206 79.7984ZM34.6574 74.7911L34.6574 79.0274L32.9448 75.2043C33.5333 75.0429 34.1042 74.899 34.6574 74.7911ZM35.3319 75.2043L34.883 75.2043L34.883 75.7245L35.3319 75.7245L35.3319 75.2043ZM35.3319 77.4474L34.883 77.4474L34.883 79.2073L35.3319 79.2073L35.3319 77.4474ZM38.9651 92.722L38.8957 96.2758C38.8957 96.2758 42.356 95.9706 42.2 93.7629C42.0443 91.4651 40.4704 90.048 38.5676 90.0649C35.6091 90.0649 33.1008 89.7244 31.9414 87.696L28.5853 88.1807C27.9106 89.2405 28.3262 90.8913 29.3636 91.1961C30.2114 91.376 32.1492 91.8422 32.8409 91.8422C33.5333 91.8422 37.6331 92.112 37.6331 92.112C38.2558 92.1474 38.9824 92.3446 38.9651 92.722ZM32.2531 87.3194C33.3945 88.594 34.7264 89.3477 36.3529 89.3477L38.4636 89.3477L38.5154 86.6733L32.2531 87.3194ZM73.8243 81.7013L6.44138 88.6293C6.44138 88.6293 24.693 74.7016 37.4774 73.6603C51.0062 72.6014 73.8243 81.7013 73.8243 81.7013ZM46.4041 74.7551C47.4596 74.9895 49.4833 76.478 49.6914 76.9098L47.5632 78.2194C46.3351 76.9098 44.449 75.6535 42.5638 75.1324L42.9097 74.3778C44.051 74.4683 45.2277 74.5937 46.4041 74.7551ZM39.6744 84.6988L53.4105 76.0298C53.0298 75.9404 52.6663 75.8684 52.2856 75.7964L38.0656 84.7169L37.9966 84.8783L37.8065 84.8964L39.6744 84.6988ZM35.3841 84.9141L35.4879 85.1301L35.9894 85.0759L31.5261 75.6176C31.8374 75.5271 32.132 75.4202 32.4433 75.3297L36.7854 85.004L33.9654 85.2916L20.8523 80.1757C21.1809 80.0143 21.5099 79.8354 21.8557 79.673L35.3841 84.9141ZM31.1976 75.7245C31.1803 75.7245 31.1631 75.7245 31.1631 75.7245C31.1631 75.7245 31.1803 75.7245 31.1976 75.7245ZM42.4422 74.3428L37.4947 84.9141L36.8026 85.004L41.2314 74.2884C41.2659 74.2884 42.8751 74.3778 42.4422 74.3428ZM77.457 82.1145L2.92934 89.6349C2.92934 89.6349 22.9453 73.9841 37.045 72.9252C52.0265 71.7225 77.457 82.1145 77.457 82.1145ZM45.2972 113.542L45.2972 117.293C45.712 117.257 46.11 117.204 46.4907 117.149C46.7331 116.144 46.8021 115.139 46.3696 114.403C46.1449 114.098 46.041 113.829 46.0061 113.614C45.781 113.596 45.5391 113.56 45.2972 113.542ZM43.9135 117.437C43.9479 116.449 43.9649 114.152 43.7401 113.381C43.3594 113.345 42.9614 113.309 42.5638 113.291C42.3387 113.793 42.2525 114.26 42.5984 114.493C43.29 114.96 42.9097 116.611 42.356 116.88C42.1659 116.97 41.9411 117.222 41.7334 117.58C42.4944 117.545 43.221 117.491 43.9135 117.437ZM40.0034 108.714C38.3424 109.737 38.9824 108.66 38.9651 112.501C39.0518 112.501 39.1207 112.501 39.2074 112.501C39.3454 112.178 39.5015 111.927 39.5015 111.927C39.5015 111.927 40.8166 111.37 41.0409 109.719C41.0754 109.467 41.1624 109.288 41.2483 109.181C40.8856 109.001 40.3664 108.875 40.0034 108.714ZM43.2727 110.24C43.3767 110.777 43.4802 111.532 43.29 111.927C43.1865 112.124 43.0304 112.393 42.8575 112.698C44.051 112.806 45.176 112.932 46.179 113.094C46.2657 113.04 46.3524 113.057 46.4389 113.13C47.2871 113.255 48.3246 113.488 48.999 113.65C48.1858 112.411 45.8159 111.173 43.2727 110.24ZM50.6427 116.144C50.5737 115.498 50.0718 114.691 49.6569 114.296C48.8606 114.026 48.0132 113.918 47.2173 113.793C47.0617 113.776 46.8883 113.739 46.7154 113.722C46.8883 114.224 47.113 114.691 47.2871 115.175C47.3208 115.606 47.3553 115.965 47.3553 115.965L47.3553 117.006C48.7399 116.773 49.9679 116.468 50.6427 116.144ZM28.914 117.222C28.8614 116.163 28.8273 114.87 28.8273 113.596C29.7793 113.47 30.8337 113.363 31.959 113.291C31.7688 114.206 31.5615 115.229 31.3705 116.144C31.0591 117.706 29.675 117.149 29.2943 117.149C29.208 117.149 29.0696 117.186 28.914 117.222ZM27.876 113.722C27.8415 114.332 27.8239 114.96 27.8239 114.96L27.7376 116.055C27.7376 116.055 27.876 116.539 28.0667 117.132C27.5997 117.078 27.1668 117.006 26.7515 116.934C26.6652 116.001 26.5781 114.96 26.544 113.937C26.9589 113.865 27.3914 113.793 27.876 113.722ZM25.852 114.08C25.9038 114.709 25.9555 115.318 25.9555 115.318L25.8689 116.414C25.8689 116.414 25.9038 116.558 25.9728 116.773C25.6788 116.701 25.3846 116.629 25.1251 116.558C24.9694 115.875 24.8138 115.122 24.7098 114.403C25.0388 114.296 25.4195 114.188 25.852 114.08ZM24.1911 114.583C24.2256 114.96 24.2428 115.229 24.2428 115.229L24.3817 116.306C23.655 116.037 23.257 115.732 23.257 115.409C23.257 115.122 23.5857 114.852 24.1911 114.583ZM42.3905 118.263C42.0788 118.281 41.7679 118.298 41.4389 118.316C41.2483 118.944 41.1276 119.752 41.1969 120.739C41.3526 122.929 39.6572 123.396 39.1035 123.575C38.5676 123.755 37.5637 123.665 37.4081 124.58C37.2528 125.495 36.7854 126.232 36.4047 126.411C36.111 126.554 35.7993 127.183 35.2629 127.811C36.0588 127.309 37.2351 126.805 37.4081 126.608C37.7888 126.142 38.4985 124.957 38.4985 124.957C38.4985 124.957 38.8784 124.4 39.7266 124.131C40.5743 123.844 41.1969 122.48 41.1969 122.48C41.1969 122.48 41.1276 121.277 41.6635 120.65C42.2 120.004 42.356 118.998 42.356 118.998C42.356 118.998 42.3387 118.586 42.3905 118.263ZM38.3597 118.424C38.1519 118.441 37.9444 118.441 37.7194 118.441C37.6331 118.567 37.5637 118.621 37.5637 118.621C37.5637 118.621 37.2528 119.913 37.2528 120.452C37.2528 120.758 37.0101 121.152 36.6987 121.458C37.0967 121.206 37.4081 121.098 37.4081 121.098C37.4081 121.098 38.5676 121.655 38.3424 119.537C38.2907 119.142 38.3079 118.765 38.3597 118.424ZM39.0518 113.147C39.0346 113.488 39.1207 113.829 39.5015 114.045C40.5049 114.583 39.4153 116.144 39.4153 116.144C39.4153 116.144 38.8439 116.701 38.5154 117.706C38.3942 117.706 38.2731 117.706 38.1519 117.706C38.4985 116.898 38.8957 115.498 38.9479 113.13C38.9824 113.13 39.0173 113.13 39.0518 113.147Z" fill="#5e5e5e" fill-rule="evenodd" opacity="1" stroke="none"/>
</g>
</svg>
