<?xml version="1.0" encoding="UTF-8" standalone="no"?>
<!DOCTYPE svg PUBLIC "-//W3C//DTD SVG 1.1//EN" "http://www.w3.org/Graphics/SVG/1.1/DTD/svg11.dtd">
<!-- Created with Vectornator (http://vectornator.io/) -->
<svg height="172.0pt" stroke-miterlimit="10" style="fill-rule:nonzero;clip-rule:evenodd;stroke-linecap:round;stroke-linejoin:round;" version="1.1" viewBox="0 0 136 172" width="136.0pt" xml:space="preserve" xmlns="http://www.w3.org/2000/svg" xmlns:xlink="http://www.w3.org/1999/xlink">
<defs/>
<clipPath id="ArtboardFrame">
<rect height="172" width="136" x="0" y="0"/>
</clipPath>
<g clip-path="url(#ArtboardFrame)" id="Layer-1">
<path d="M34.6351 141.251C34.6351 140.883 34.8237 140.53 34.9807 140.29L35.7243 140.25L36.4933 141.47L36.4933 158.579L35.6149 159.558L34.6351 158.579L34.6351 141.251ZM25.4565 137.521C24.9695 141.464 25.2515 147.068 25.2515 151.34C25.2515 155.983 25.2515 160.626 25.2515 165.268C25.2515 172.041 24.5431 171.904 28.8327 171.966C29.7204 171.979 32.9222 172.103 33.6691 171.779C35.058 171.175 34.6351 170.547 34.6351 167.462C34.6351 163.049 34.1525 162.535 36.5991 162.543C39.5137 162.554 42.1595 161.727 44.0096 159.43C44.5649 158.74 44.9848 158.157 45.3883 157.296C46.3552 155.233 46.0612 153.273 46.0634 151.011L45.7408 144.47C45.4091 142.727 44.7315 140.992 43.4856 139.714C42.4374 138.639 40.7654 137.643 38.8243 137.405C38.3029 137.341 37.7041 137.216 37.2529 137.18C36.2581 137.1 29.9754 137.172 28.5098 137.172C26.644 137.172 27.0698 137.019 25.4565 137.521" fill="#5e5e5e" fill-rule="evenodd" opacity="1" stroke="none"/>
<path d="M23.4859 138.619C23.4859 137.286 22.4932 137.162 21.2961 137.17C13.7056 137.221 13.8235 136.454 13.8235 140.483L13.8286 158.476C13.8389 160.114 12.3498 159.652 12.2451 158.685C12.175 158.037 12.244 142.607 12.244 140.812C12.244 139.638 12.4384 138.445 11.8339 137.69C11.2543 136.967 9.82266 137.172 8.72467 137.172C7.5224 137.172 6.31914 137.177 5.11686 137.171C3.8029 137.165 3.01145 137.289 2.66368 138.36C2.44173 139.045 2.58144 147.888 2.58144 149.037C2.58144 153.228 2.13242 155.073 3.96462 158.408C4.40958 159.218 5.04574 159.749 5.65798 160.343C6.73738 161.389 7.73797 161.742 9.16495 162.187C11.0444 162.774 18.5494 162.53 21.2959 162.543C22.3793 162.549 23.0215 162.577 23.3216 161.921C23.4143 161.719 23.4859 161.527 23.4859 161.211L23.4859 138.619" fill="#5e5e5e" fill-rule="evenodd" opacity="1" stroke="none"/>
<path d="M103.946 151.34C103.703 152.093 103.522 152.201 102.628 152.194C101.033 152.18 95.127 152.123 94.0743 152.277C93.1512 152.411 92.992 152.409 92.8329 153.255C92.642 154.267 92.5868 160.393 92.8099 161.405C92.9784 162.171 92.9827 162.383 93.9009 162.514C94.462 162.594 103.678 162.555 104.594 162.546C105.808 162.535 107.261 162.244 108.271 161.845C110.244 161.066 111.706 159.467 112.647 157.561C112.882 157.085 113.294 156.372 113.327 156.054C113.381 155.548 113.294 155.587 113.458 155.087C113.788 154.083 113.606 151.136 113.609 149.914C113.613 148.853 113.511 147.57 111.905 147.437C109.237 147.215 106.08 147.612 103.378 147.433C102.41 147.369 101.325 145.828 104.261 145.845C105.681 145.854 107.104 145.846 108.525 145.846C113.318 145.846 113.609 146.396 113.609 142.348C113.609 141.283 113.851 138.917 113.408 138.213C113.316 138.067 113.076 137.67 112.975 137.555C112.709 137.25 112.674 137.289 112.197 137.219C111.613 137.132 102.171 137.131 101.534 137.182C99.212 137.368 96.8879 137.999 95.3922 139.701C94.8371 140.333 93.8785 141.63 93.593 142.283C92.7323 144.257 92.4616 147.608 92.8444 149.637C92.9466 150.178 92.8313 150.092 93.2944 150.278C94.0076 150.565 99.6555 150.417 100.545 150.417C102.402 150.417 103.53 150.055 103.946 151.34" fill="#5e5e5e" fill-rule="evenodd" opacity="1" stroke="none"/>
<path d="M126.152 159.464C124.892 159.472 124.838 159.823 124.849 158.141L124.85 152.546C124.845 151.352 124.77 151.034 125.577 150.525L126.305 151.161C126.488 151.428 126.503 157.752 126.43 158.575C126.39 159.039 126.261 159.029 126.152 159.464ZM123.063 145.846C126.276 145.846 123.919 140.25 125.359 140.25L125.687 140.25L126.43 141.141L126.43 146.405L124.813 147.435C123.932 147.689 121.388 146.537 117.809 149.247C117.088 149.792 116.566 150.441 116.139 151.306C115.031 153.547 114.935 155.45 115.692 157.748C115.795 158.061 115.747 158.101 115.898 158.422C116.252 159.174 116.959 160.007 117.514 160.531C119.006 161.94 120.712 162.543 122.845 162.543L134.759 162.543L136 160.991L136 145.309L135.031 141.744C134.523 140.724 133.776 140.033 132.942 139.346C131.249 137.95 129.038 137.163 126.124 137.171C123.114 137.18 120.53 137.075 118.497 138.541C118 138.899 117.625 139.093 117.195 139.538C115.97 140.807 115.188 142.625 115.188 144.431L116.723 145.846L123.063 145.846" fill="#5e5e5e" fill-rule="evenodd" opacity="1" stroke="none"/>
<path d="M81.1109 159.48C80.8747 159.551 80.2419 159.545 80.0057 159.334C79.6814 159.044 79.7038 158.078 79.7257 157.656C79.7399 157.377 79.7257 157.438 79.7087 157.141C79.5731 154.768 79.6967 147.917 79.6967 145.089C79.6967 143.901 79.3823 140.771 80.2135 140.25L81.223 140.354C81.2383 141.49 81.2203 145.516 81.2837 146.405C81.4494 148.71 83.8326 148.271 85.4606 148.271C86.8021 148.271 89.4128 148.488 90.2736 148.039C90.6088 147.863 90.6416 147.882 90.7953 147.588C91.259 146.701 90.7373 143.468 90.3124 142.415C90.1325 141.969 89.8399 141.411 89.6343 141.012C89.1071 139.989 87.6284 138.829 86.5172 138.216C84.1635 136.918 78.5335 136.846 76.0606 137.742C73.387 138.711 72.0516 140.138 70.8206 142.468L70.335 143.925C69.8619 146.034 70.0337 149.24 70.0337 151.669C70.0337 153.702 70.0397 155.802 71.0574 157.672C72.1369 159.656 73.6413 161.131 75.8211 161.893C76.7989 162.234 78.0452 162.534 79.2253 162.546C80.5378 162.56 81.8442 162.565 83.0528 162.435C84.5922 162.271 86.4625 161.759 87.5677 160.911C88.837 159.938 90.0969 158.408 90.4776 156.82C90.675 155.997 90.9358 155.605 90.9424 154.306C90.955 151.784 91.3624 150.51 90.2167 149.976C89.6173 149.697 84.1837 149.86 83.3798 149.855C81.9137 149.844 81.4368 150.27 81.2974 151.682C81.1399 153.278 81.5796 158.613 81.1109 159.48" fill="#5e5e5e" fill-rule="evenodd" opacity="1" stroke="none"/>
<path d="M105.897 119.208L105.897 114.382L104.481 112.827C103.273 112.827 100.321 112.673 99.3252 112.956C99.6741 113.213 99.2323 112.957 99.5741 113.072C99.661 113.101 99.7507 113.12 99.8382 113.141C99.9913 113.179 100.162 113.219 100.339 113.273C101.311 113.569 102.093 113.365 100.655 116.092L92.4561 116.092L91.7747 115.812L90.5979 112.827L83.1649 112.827L82.4256 113.492C82.6913 113.761 82.6027 113.598 82.9079 113.772L83.4132 114.163C83.4132 115.5 83.7304 115.611 81.3433 114.896L76.1684 113.643C75.6931 113.548 75.6598 113.47 75.1977 113.379L69.0493 111.87L68.3619 111.202C68.7371 110.514 72.5662 108.414 73.854 107.566C74.437 107.182 75.067 106.788 75.7456 106.385C76.0497 106.205 76.438 105.99 76.7032 105.816C77.0165 105.611 77.3086 105.373 77.6175 105.197L81.4428 102.889L83.4132 103.086L83.4132 109.337L82.4841 109.842C82.4857 110.308 82.4026 110.574 82.8499 110.668L90.7072 110.682C92.1778 110.682 91.7731 108.084 91.7747 106.266L91.7846 100.759C92.2773 100.563 92.0525 100.408 92.6213 100.497C93.8161 100.684 99.7726 100.626 101.132 100.633C101.404 101.972 101.252 107.373 101.252 109.118C101.252 109.458 101.022 109.711 100.819 109.947C100.589 110.216 100.681 110.046 100.536 110.544L100.983 110.682L104.262 110.682L105.897 109.228L105.897 96.8346C105.897 95.5778 103.832 95.9445 103.059 95.9445C100.986 95.9445 87.309 95.7732 86.4537 96.0736L79.519 98.5427C75.102 100.106 70.149 101.991 65.8064 103.434C64.8346 103.757 60.4707 105.204 60.1322 106.075C59.7078 107.168 59.9041 112.81 59.9069 114.382C59.9091 115.702 59.5016 116.651 60.5691 117.196C60.69 117.258 61.0236 117.411 61.1822 117.471C61.4895 117.586 61.6147 117.571 61.9811 117.655L77.7592 119.59C79.6245 119.94 80.3617 119.622 81.9246 119.925C82.5535 120.047 86.1929 120.317 86.9826 120.395C87.4988 120.447 88.0457 120.646 88.6242 120.664C91.7288 120.765 96.5444 120.662 99.7802 120.662C100.639 120.662 104.551 120.829 105.164 120.445C105.532 120.215 105.897 119.817 105.897 119.208" fill="#5e5e5e" fill-rule="evenodd" opacity="1" stroke="#5e5e5e" stroke-linecap="butt" stroke-linejoin="miter" stroke-width="0.56693"/>
<path d="M60.5571 107.473C60.5571 106.724 60.8628 106.264 61.355 105.986C61.8258 105.721 62.2535 105.409 62.8599 105.202L69.6224 102.768C70.7949 102.345 71.765 101.98 72.9123 101.57C73.4898 101.364 74.0597 101.168 74.6125 100.97L83.0462 97.9124C83.5351 97.7191 85.9648 96.7841 86.4439 96.7841L87.1291 97.3831C87.1291 100.088 87.2407 107.577 87.1029 109.75L85.301 109.942C84.8503 110.067 84.2269 110.298 83.8053 110.309L84.2373 109.208L84.3423 104.292C84.3625 103.433 83.9841 101.821 83.2743 101.821C81.6917 101.821 81.3663 101.848 79.9215 102.789L77.3277 104.47C77.3058 104.483 77.2769 104.497 77.255 104.508C77.2331 104.52 77.2041 104.534 77.1822 104.546C76.4057 104.964 73.7966 106.749 72.6488 107.448C72.3146 107.651 72.01 107.858 71.7125 108.043C71.3593 108.261 71.1432 108.385 70.8485 108.609C69.9292 109.31 67.5252 110.296 67.5252 111.311L68.8617 112.507L78.8152 115.136C79.6169 115.352 82.489 116.184 82.8373 116.184L84.0322 115.803C84.1011 115.691 84.3423 114.852 84.3423 114.711C84.3423 114.467 83.7697 113.484 83.6237 113.2L85.6061 113.577C87.5967 114.089 87.5732 112.226 87.2281 117.46C87.1269 118.991 87.3123 119.73 86.772 119.73C86.0873 119.73 83.0468 119.468 82.4737 119.372C80.8222 119.094 79.1302 119.007 77.46 118.807L72.4995 118.282C70.7954 117.994 68.7737 117.919 67.4825 117.721L64.2539 117.325C63.7262 117.265 63.0404 117.264 62.5602 117.168C61.6273 116.982 60.5571 116.687 60.5571 115.589L60.5571 107.473" fill="#adadad" fill-rule="evenodd" opacity="1" stroke="none"/>
<path d="M68.4664 161.211C68.684 160.449 68.5659 142.375 68.5506 139.383C68.5418 137.653 67.9999 137.163 66.333 137.169C64.8751 137.173 63.4166 137.172 61.9587 137.172C60.3438 137.172 59.2949 137.026 58.9449 138.567C58.7678 139.347 58.8908 158.223 58.8815 160.446C58.8728 162.537 59.8855 162.549 61.1931 162.543C62.5641 162.537 64.2145 162.628 65.5445 162.514C67.0516 162.384 67.9463 163.03 68.4664 161.211" fill="#5e5e5e" fill-rule="evenodd" opacity="1" stroke="none"/>
<path d="M57.2097 161.43C57.6024 160.666 57.3984 146.072 57.3984 143.993C57.3984 136.23 58.1886 137.172 51.0276 137.172C49.8494 137.172 47.8552 136.819 47.7356 138.285C47.632 139.556 47.7356 141.348 47.7356 142.677L47.7354 160.224C47.7322 161.198 47.6113 161.431 48.1385 162.026C48.6106 162.56 48.9205 162.55 49.8242 162.544C51.2836 162.534 52.7441 162.552 54.2029 162.544C55.7961 162.536 56.5546 162.707 57.2097 161.43" fill="#5e5e5e" fill-rule="evenodd" opacity="1" stroke="none"/>
<path d="M16.2393 58.1214C16.2393 59.0658 16.1695 59.7532 17.3602 59.7532L34.3033 59.7532C35.3182 59.7532 35.4703 58.4662 35.4752 57.6876C35.4823 56.5049 35.7493 52.679 35.9537 51.5562C36.2726 49.803 36.4933 49.5136 36.4933 47.8126C36.4933 47.1845 36.1814 47.0928 35.2893 47.0659C31.3539 46.9473 25.3307 47.0686 21.2954 47.0686C16.7567 47.0686 17.9013 46.9094 17.0492 50.7825C16.8191 51.8274 16.2393 57.049 16.2393 58.1214" fill="#5e5e5e" fill-rule="evenodd" opacity="1" stroke="#5e5e5e" stroke-linecap="butt" stroke-linejoin="miter" stroke-width="0.56693"/>
<path d="M16.2393 58.1214C16.2393 59.0658 16.1695 59.7532 17.3602 59.7532L34.3033 59.7532C35.3182 59.7532 35.4703 58.4662 35.4752 57.6876C35.4823 56.5049 35.7493 52.679 35.9537 51.5562C36.2726 49.803 36.4933 49.5136 36.4933 47.8126C36.4933 47.1845 36.1814 47.0928 35.2893 47.0659C31.3539 46.9473 25.3307 47.0686 21.2954 47.0686C16.7567 47.0686 17.9013 46.9094 17.0492 50.7825C16.8191 51.8274 16.2393 57.049 16.2393 58.1214Z" fill="none" opacity="1" stroke="#5e5e5e" stroke-linecap="butt" stroke-linejoin="miter" stroke-width="0.56693"/>
<path d="M36.5356 73.8374C36.7163 72.8765 35.9228 68.7706 35.686 67.393C35.5297 66.482 35.5198 62.4074 35.3171 62.1433L34.3033 61.3389L17.1414 61.3389C15.9571 61.3389 16.254 63.0053 16.3391 64.2649C16.3965 65.1094 16.9325 69.016 17.0953 69.9247C17.132 70.1301 17.1745 70.7835 17.198 70.9284C17.2341 71.1552 17.3384 71.4374 17.3927 71.7894C17.6588 73.5211 17.4497 73.9444 19.5459 73.9318C21.9141 73.9181 35.4485 74.0971 36.5356 73.8374" fill="#5e5e5e" fill-rule="evenodd" opacity="1" stroke="#5e5e5e" stroke-linecap="butt" stroke-linejoin="miter" stroke-width="0.56693"/>
<path d="M36.5356 73.8374C36.7163 72.8765 35.9228 68.7706 35.686 67.393C35.5297 66.482 35.5198 62.4074 35.3171 62.1433L34.3033 61.3389L17.1414 61.3389C15.9571 61.3389 16.254 63.0053 16.3391 64.2649C16.3965 65.1094 16.9325 69.016 17.0953 69.9247C17.132 70.1301 17.1745 70.7835 17.198 70.9284C17.2341 71.1552 17.3384 71.4374 17.3927 71.7894C17.6588 73.5211 17.4497 73.9444 19.5459 73.9318C21.9141 73.9181 35.4485 74.0971 36.5356 73.8374Z" fill="none" opacity="1" stroke="#5e5e5e" stroke-linecap="butt" stroke-linejoin="miter" stroke-width="0.56693"/>
<path d="M80.4399 43.3163C80.4399 45.2062 81.3657 47.4749 81.3696 48.9042C81.3718 49.6707 81.5325 52.0454 81.8771 52.5044C82.8149 53.7557 85.4497 53.317 87.1001 53.3176L99.4521 53.3176C103.416 53.3181 102.434 52.7504 102.276 48.3595C102.259 47.8576 101.396 43.9104 101.12 43.4008C100.856 42.9133 100.378 42.7035 99.8683 42.5712C98.4273 42.1967 97.5299 42.3115 95.9544 42.3115L83.6024 42.3115C82.4267 42.3115 80.4399 42.01 80.4399 43.3163" fill="#5e5e5e" fill-rule="evenodd" opacity="1" stroke="#5e5e5e" stroke-linecap="butt" stroke-linejoin="miter" stroke-width="0.56693"/>
<path d="M80.4399 43.3163C80.4399 45.2062 81.3657 47.4749 81.3696 48.9042C81.3718 49.6707 81.5325 52.0454 81.8771 52.5044C82.8149 53.7557 85.4497 53.317 87.1001 53.3176L99.4521 53.3176C103.416 53.3181 102.434 52.7504 102.276 48.3595C102.259 47.8576 101.396 43.9104 101.12 43.4008C100.856 42.9133 100.378 42.7035 99.8683 42.5712C98.4273 42.1967 97.5299 42.3115 95.9544 42.3115L83.6024 42.3115C82.4267 42.3115 80.4399 42.01 80.4399 43.3163Z" fill="#5e5e5e" fill-rule="nonzero" opacity="1" stroke="#5e5e5e" stroke-linecap="butt" stroke-linejoin="miter" stroke-width="0.56693"/>
<path d="M81.5544 75.6685L81.5544 76.5459L82.8373 77.7555L99.3427 77.7555L100.802 77.4332C102.554 76.9978 102.538 74.7 102.664 73.833L102.857 72.2923C102.903 71.8366 103.043 71.1447 103.093 70.6248L103.112 67.1146C102.915 66.8071 103.176 67.0855 102.942 66.9273C102.72 66.7769 102.114 66.6803 101.83 66.6556L83.93 66.6556C83.4805 66.6556 82.5475 67.6153 82.4398 68.037C82.2549 68.7612 82.4688 69.7704 82.2566 70.689C82.0652 71.5187 82.0559 73.4799 81.7934 74.5177C81.7179 74.8169 81.5544 75.4022 81.5544 75.6685" fill="#5e5e5e" fill-rule="evenodd" opacity="1" stroke="#5e5e5e" stroke-linecap="butt" stroke-linejoin="miter" stroke-width="0.56693"/>
<path d="M81.5544 75.6685L81.5544 76.5459L82.8373 77.7555L99.3427 77.7555L100.802 77.4332C102.554 76.9978 102.538 74.7 102.664 73.833L102.857 72.2923C102.903 71.8366 103.043 71.1447 103.093 70.6248L103.112 67.1146C102.915 66.8071 103.176 67.0855 102.942 66.9273C102.72 66.7769 102.114 66.6803 101.83 66.6556L83.93 66.6556C83.4805 66.6556 82.5475 67.6153 82.4398 68.037C82.2549 68.7612 82.4688 69.7704 82.2566 70.689C82.0652 71.5187 82.0559 73.4799 81.7934 74.5177C81.7179 74.8169 81.5544 75.4022 81.5544 75.6685Z" fill="#5e5e5e" fill-rule="nonzero" opacity="1" stroke="#5e5e5e" stroke-linecap="butt" stroke-linejoin="miter" stroke-width="0.56693"/>
<path d="M18.3768 75.9974C18.4507 76.5547 19.2932 79.0085 19.5365 79.4121C19.6108 79.5356 19.7098 79.68 19.7723 79.8283C19.9001 80.1325 19.9969 80.4789 20.1268 80.8078C20.2538 81.1296 20.3498 81.3761 20.4963 81.7374C20.899 82.7306 22.0089 84.5849 22.104 84.8435C22.5295 85.9987 22.5349 85.7774 24.4653 85.7774L39.6596 86.0575C39.6839 86.0575 40.8947 85.8433 41.0801 85.4321C41.2809 84.9862 41.0256 84.6952 40.8652 84.3317C40.8107 84.2087 40.771 84.0923 40.7048 83.9457C39.8261 82.002 39.6538 81.9521 38.788 79.6213C37.8724 77.1576 38.3953 78.287 36.5988 75.517L19.3278 75.517C18.7134 75.517 18.6154 75.7015 18.3768 75.9974" fill="#5e5e5e" fill-rule="evenodd" opacity="1" stroke="#5e5e5e" stroke-linecap="butt" stroke-linejoin="miter" stroke-width="0.56693"/>
<path d="M18.3768 75.9974C18.4507 76.5547 19.2932 79.0085 19.5365 79.4121C19.6108 79.5356 19.7098 79.68 19.7723 79.8283C19.9001 80.1325 19.9969 80.4789 20.1268 80.8078C20.2538 81.1296 20.3498 81.3761 20.4963 81.7374C20.899 82.7306 22.0089 84.5849 22.104 84.8435C22.5295 85.9987 22.5349 85.7774 24.4653 85.7774L39.6596 86.0575C39.6839 86.0575 40.8947 85.8433 41.0801 85.4321C41.2809 84.9862 41.0256 84.6952 40.8652 84.3317C40.8107 84.2087 40.771 84.0923 40.7048 83.9457C39.8261 82.002 39.6538 81.9521 38.788 79.6213C37.8724 77.1576 38.3953 78.287 36.5988 75.517L19.3278 75.517C18.7134 75.517 18.6154 75.7015 18.3768 75.9974Z" fill="none" opacity="1" stroke="#5e5e5e" stroke-linecap="butt" stroke-linejoin="miter" stroke-width="0.56693"/>
<path d="M18.5661 45.4044C19.446 45.7025 34.3046 45.7574 36.6969 45.4785C37.05 45.4379 37.1348 45.3819 37.3142 45.1315C37.53 44.8295 38.1384 43.3256 38.2777 42.9166C38.9356 40.9833 39.2385 40.2986 40.0479 38.4361C40.4677 37.4703 41.5565 35.9752 40.9146 35.4789C40.4177 35.094 26.4206 35.3158 24.5747 35.3158C22.0803 35.3152 22.4821 35.0176 21.4683 37.2353L20.8092 38.6651C20.6336 39.0407 20.5786 39.0346 20.4512 39.3943L19.2475 42.3664C18.9281 43.5156 18.1786 44.617 18.5661 45.4044" fill="#5e5e5e" fill-rule="evenodd" opacity="1" stroke="#5e5e5e" stroke-linecap="butt" stroke-linejoin="miter" stroke-width="0.56693"/>
<path d="M18.5661 45.4044C19.446 45.7025 34.3046 45.7574 36.6969 45.4785C37.05 45.4379 37.1348 45.3819 37.3142 45.1315C37.53 44.8295 38.1384 43.3256 38.2777 42.9166C38.9356 40.9833 39.2385 40.2986 40.0479 38.4361C40.4677 37.4703 41.5565 35.9752 40.9146 35.4789C40.4177 35.094 26.4206 35.3158 24.5747 35.3158C22.0803 35.3152 22.4821 35.0176 21.4683 37.2353L20.8092 38.6651C20.6336 39.0407 20.5786 39.0346 20.4512 39.3943L19.2475 42.3664C18.9281 43.5156 18.1786 44.617 18.5661 45.4044Z" fill="none" opacity="1" stroke="#5e5e5e" stroke-linecap="butt" stroke-linejoin="miter" stroke-width="0.56693"/>
<path d="M39.9873 121.408L52.2301 121.408C53.0929 121.408 53.3405 120.603 53.6915 119.912L54.6111 117.891C54.8779 116.661 53.1788 116.296 51.4271 115.406L49.2777 114.381C48.6407 114.057 46.1262 112.922 45.9121 112.607C45.1233 111.449 46.1275 110.749 46.337 110.444C47.0057 109.473 48.3363 108.908 49.3642 108.324C50.3968 107.739 51.5476 106.893 52.5272 106.24C53.7713 105.412 53.2845 104.39 52.9483 103.267C52.8041 102.784 52.5283 102.137 52.072 101.934C51.5702 101.712 44.8216 101.689 43.9823 101.855C42.8715 102.074 42.6697 103.367 42.4701 104.451C42.2407 105.697 41.8769 106.774 41.6855 107.998C41.5954 108.575 41.4544 109.123 41.3318 109.688L40.3814 114.02C40.3091 114.3 40.2895 114.659 40.2173 114.943L39.8238 116.635C39.7456 116.946 39.7683 117.184 39.6922 117.496C39.5008 118.284 38.8356 120.233 39.3193 120.967C39.4511 121.168 39.689 121.408 39.9873 121.408" fill="#5e5e5e" fill-rule="evenodd" opacity="1" stroke="#5e5e5e" stroke-linecap="butt" stroke-linejoin="miter" stroke-width="0.56693"/>
<path d="M39.9873 121.408L52.2301 121.408C53.0929 121.408 53.3405 120.603 53.6915 119.912L54.6111 117.891C54.8779 116.661 53.1788 116.296 51.4271 115.406L49.2777 114.381C48.6407 114.057 46.1262 112.922 45.9121 112.607C45.1233 111.449 46.1275 110.749 46.337 110.444C47.0057 109.473 48.3363 108.908 49.3642 108.324C50.3968 107.739 51.5476 106.893 52.5272 106.24C53.7713 105.412 53.2845 104.39 52.9483 103.267C52.8041 102.784 52.5283 102.137 52.072 101.934C51.5702 101.712 44.8216 101.689 43.9823 101.855C42.8715 102.074 42.6697 103.367 42.4701 104.451C42.2407 105.697 41.8769 106.774 41.6855 107.998C41.5954 108.575 41.4544 109.123 41.3318 109.688L40.3814 114.02C40.3091 114.3 40.2895 114.659 40.2173 114.943L39.8238 116.635C39.7456 116.946 39.7683 117.184 39.6922 117.496C39.5008 118.284 38.8356 120.233 39.3193 120.967C39.4511 121.168 39.689 121.408 39.9873 121.408Z" fill="none" opacity="1" stroke="#5e5e5e" stroke-linecap="butt" stroke-linejoin="miter" stroke-width="0.56693"/>
<path d="M70.1567 42.871C71.1252 42.871 71.2444 42.7689 72.4092 42.5328C72.7926 42.4553 73.0048 42.368 73.3367 42.3241C74.3626 42.1857 76.9487 41.523 77.9205 41.4698C79.0678 41.4072 80.5919 41.1354 81.7261 40.991C87.1269 40.3024 88.6341 42.6003 91.7867 38.0419C92.7202 36.6923 95.4912 34.3708 95.4912 32.6786C95.4912 31.4838 94.0847 31.771 93.003 31.771L88.1917 31.7825C87.1258 31.7122 87.3807 31.5843 85.7882 31.5843L80.2135 31.491C79.5354 31.491 78.4411 31.7809 77.897 32.1169C77.6525 32.2679 77.3529 32.4782 77.063 32.6874C75.5767 33.7575 71.5857 38.9616 69.9943 40.4122C69.6804 40.6983 69.4523 40.8048 69.2533 41.2007C68.7928 42.1171 69.1095 42.871 70.1567 42.871" fill="#5e5e5e" fill-rule="evenodd" opacity="1" stroke="#5e5e5e" stroke-linecap="butt" stroke-linejoin="miter" stroke-width="0.56693"/>
<path d="M70.1567 42.871C71.1252 42.871 71.2444 42.7689 72.4092 42.5328C72.7926 42.4553 73.0048 42.368 73.3367 42.3241C74.3626 42.1857 76.9487 41.523 77.9205 41.4698C79.0678 41.4072 80.5919 41.1354 81.7261 40.991C87.1269 40.3024 88.6341 42.6003 91.7867 38.0419C92.7202 36.6923 95.4912 34.3708 95.4912 32.6786C95.4912 31.4838 94.0847 31.771 93.003 31.771L88.1917 31.7825C87.1258 31.7122 87.3807 31.5843 85.7882 31.5843L80.2135 31.491C79.5354 31.491 78.4411 31.7809 77.897 32.1169C77.6525 32.2679 77.3529 32.4782 77.063 32.6874C75.5767 33.7575 71.5857 38.9616 69.9943 40.4122C69.6804 40.6983 69.4523 40.8048 69.2533 41.2007C68.7928 42.1171 69.1095 42.871 70.1567 42.871Z" fill="#5e5e5e" fill-rule="nonzero" opacity="1" stroke="#5e5e5e" stroke-linecap="butt" stroke-linejoin="miter" stroke-width="0.56693"/>
<path d="M96.2349 64.4829C96.2311 63.5418 95.7788 63.3556 95.121 63.0191L91.7058 61.1736C90.6236 60.601 90.9692 61.0863 90.4765 59.6341L93.4776 58.1675C94.2307 57.7744 95.8018 57.0238 96.1261 56.3177C96.7457 54.9681 95.0876 54.5519 93.8845 54.6172C92.6213 54.6858 86.2235 54.6386 84.9936 54.5464C84.3434 54.4981 81.8147 55.1377 81.3439 55.3112C80.6111 55.5825 79.356 56.226 78.2087 56.6504C77.0346 57.0842 72.6214 58.8154 71.9783 59.5116C70.919 60.6581 73.9437 61.564 75.4678 62.2306C75.4919 62.2416 75.5209 62.2531 75.546 62.263C76.8711 62.8165 80.3573 64.154 81.0354 64.5356C81.4068 64.7448 83.1212 65.3285 83.6008 65.3504L94.8475 65.3378C95.4628 65.284 96.0796 64.9523 96.2349 64.4829" fill="#5e5e5e" fill-rule="evenodd" opacity="1" stroke="#5e5e5e" stroke-linecap="butt" stroke-linejoin="miter" stroke-width="0.56693"/>
<path d="M96.2349 64.4829C96.2311 63.5418 95.7788 63.3556 95.121 63.0191L91.7058 61.1736C90.6236 60.601 90.9692 61.0863 90.4765 59.6341L93.4776 58.1675C94.2307 57.7744 95.8018 57.0238 96.1261 56.3177C96.7457 54.9681 95.0876 54.5519 93.8845 54.6172C92.6213 54.6858 86.2235 54.6386 84.9936 54.5464C84.3434 54.4981 81.8147 55.1377 81.3439 55.3112C80.6111 55.5825 79.356 56.226 78.2087 56.6504C77.0346 57.0842 72.6214 58.8154 71.9783 59.5116C70.919 60.6581 73.9437 61.564 75.4678 62.2306C75.4919 62.2416 75.5209 62.2531 75.546 62.263C76.8711 62.8165 80.3573 64.154 81.0354 64.5356C81.4068 64.7448 83.1212 65.3285 83.6008 65.3504L94.8475 65.3378C95.4628 65.284 96.0796 64.9523 96.2349 64.4829Z" fill="#5e5e5e" fill-rule="nonzero" opacity="1" stroke="#5e5e5e" stroke-linecap="butt" stroke-linejoin="miter" stroke-width="0.56693"/>
<path d="M63.6228 25.55C63.6228 25.7922 64.2812 26.3478 64.4732 26.5477C65.8152 26.5477 66.566 25.6071 67.2901 24.9757L70.7161 22.0552C72.4989 20.5585 72.4885 21.0444 76.2783 21.0444C77.5951 21.0444 84.0197 21.1976 84.5775 21.0499C85.2053 20.8841 85.383 20.6425 85.6406 20.0193C86.0037 19.1424 87.3156 15.4043 87.3156 14.9124L85.6794 13.7692L69.5016 13.7692C67.1156 13.7692 66.6891 15.7623 66.2565 17.1394C65.7681 18.6916 63.6228 24.593 63.6228 25.55" fill="#5e5e5e" fill-rule="evenodd" opacity="1" stroke="#5e5e5e" stroke-linecap="butt" stroke-linejoin="miter" stroke-width="0.56693"/>
<path d="M63.6228 25.55C63.6228 25.7922 64.2812 26.3478 64.4732 26.5477C65.8152 26.5477 66.566 25.6071 67.2901 24.9757L70.7161 22.0552C72.4989 20.5585 72.4885 21.0444 76.2783 21.0444C77.5951 21.0444 84.0197 21.1976 84.5775 21.0499C85.2053 20.8841 85.383 20.6425 85.6406 20.0193C86.0037 19.1424 87.3156 15.4043 87.3156 14.9124L85.6794 13.7692L69.5016 13.7692C67.1156 13.7692 66.6891 15.7623 66.2565 17.1394C65.7681 18.6916 63.6228 24.593 63.6228 25.55Z" fill="#5e5e5e" fill-rule="nonzero" opacity="1" stroke="#5e5e5e" stroke-linecap="butt" stroke-linejoin="miter" stroke-width="0.56693"/>
<path d="M74.4698 22.4193C73.9186 22.6114 73.8644 22.9562 73.7802 23.625C73.6812 24.4107 74.4654 25.141 74.974 26.3045C75.1184 26.6339 75.1408 26.6619 75.3081 26.965C75.4328 27.1912 75.516 27.3779 75.6297 27.6239C75.8829 28.1746 75.9917 28.476 76.1984 29.0295C76.8301 30.7228 78.8945 30.1853 80.9786 30.1853C82.9385 30.1853 95.8663 30.3528 96.5499 30.1084C97.8514 29.6434 96.9229 28.319 96.5991 27.6497C96.3962 27.2296 96.2322 26.6981 96.037 26.2364C95.8062 25.6884 95.577 25.4479 95.3485 24.9521C94.9837 24.1604 94.4084 22.8722 93.7325 22.6378C91.8414 21.9827 74.6021 22.3731 74.4698 22.4193" fill="#5e5e5e" fill-rule="evenodd" opacity="1" stroke="#5e5e5e" stroke-linecap="butt" stroke-linejoin="miter" stroke-width="0.56693"/>
<path d="M74.4698 22.4193C73.9186 22.6114 73.8644 22.9562 73.7802 23.625C73.6812 24.4107 74.4654 25.141 74.974 26.3045C75.1184 26.6339 75.1408 26.6619 75.3081 26.965C75.4328 27.1912 75.516 27.3779 75.6297 27.6239C75.8829 28.1746 75.9917 28.476 76.1984 29.0295C76.8301 30.7228 78.8945 30.1853 80.9786 30.1853C82.9385 30.1853 95.8663 30.3528 96.5499 30.1084C97.8514 29.6434 96.9229 28.319 96.5991 27.6497C96.3962 27.2296 96.2322 26.6981 96.037 26.2364C95.8062 25.6884 95.577 25.4479 95.3485 24.9521C94.9837 24.1604 94.4084 22.8722 93.7325 22.6378C91.8414 21.9827 74.6021 22.3731 74.4698 22.4193Z" fill="#5e5e5e" fill-rule="nonzero" opacity="1" stroke="#5e5e5e" stroke-linecap="butt" stroke-linejoin="miter" stroke-width="0.56693"/>
<path d="M47.1781 28.0725C47.1781 26.4615 46.6959 26.445 44.6887 26.4538C42.6624 26.4626 30.3518 26.3819 29.8367 26.462C29.4095 26.5285 29.0786 26.9985 28.8035 27.2708C28.4271 27.6436 28.3209 27.8375 27.8837 28.2169L26.9414 29.1311C26.3323 29.8245 24.6065 31.5854 24.5505 32.3991C24.5366 32.6012 24.6886 33.3056 25.1402 33.533C25.8124 33.8717 29.5746 33.7301 30.4774 33.7301L41.6349 33.7361C42.2191 33.7323 42.6731 33.5593 42.9636 33.2458C43.595 32.5644 43.6119 31.8528 45.4238 30.1243C45.7558 29.8075 45.963 29.5429 46.3212 29.1607C46.5598 28.906 47.1781 28.4398 47.1781 28.0725" fill="#5e5e5e" fill-rule="evenodd" opacity="1" stroke="#5e5e5e" stroke-linecap="butt" stroke-linejoin="miter" stroke-width="0.56693"/>
<path d="M47.1781 28.0725C47.1781 26.4615 46.6959 26.445 44.6887 26.4538C42.6624 26.4626 30.3518 26.3819 29.8367 26.462C29.4095 26.5285 29.0786 26.9985 28.8035 27.2708C28.4271 27.6436 28.3209 27.8375 27.8837 28.2169L26.9414 29.1311C26.3323 29.8245 24.6065 31.5854 24.5505 32.3991C24.5366 32.6012 24.6886 33.3056 25.1402 33.533C25.8124 33.8717 29.5746 33.7301 30.4774 33.7301L41.6349 33.7361C42.2191 33.7323 42.6731 33.5593 42.9636 33.2458C43.595 32.5644 43.6119 31.8528 45.4238 30.1243C45.7558 29.8075 45.963 29.5429 46.3212 29.1607C46.5598 28.906 47.1781 28.4398 47.1781 28.0725Z" fill="none" opacity="1" stroke="#5e5e5e" stroke-linecap="butt" stroke-linejoin="miter" stroke-width="0.56693"/>
<path d="M30.1495 94.6383L45.9995 94.6383L47.1781 93.7642C47.1781 92.1757 47.2372 93.1026 46.038 91.6387C45.5458 91.037 45.2074 90.8256 44.7349 90.3138C43.814 89.3162 43.4955 88.3427 43.1998 88.0171C43.1037 87.9117 42.5748 87.5103 42.4392 87.4515C41.9363 87.2341 29.4155 87.3648 27.0887 87.3631C26.2973 87.3626 25.3491 87.2583 24.9436 87.7799C24.0981 88.8681 24.8797 89.5353 26.001 90.9013C26.5955 91.6256 27.8638 93.0208 28.5516 93.611C28.9569 93.958 29.3894 94.6383 30.1495 94.6383" fill="#5e5e5e" fill-rule="evenodd" opacity="1" stroke="#5e5e5e" stroke-linecap="butt" stroke-linejoin="miter" stroke-width="0.56693"/>
<path d="M30.1495 94.6383L45.9995 94.6383L47.1781 93.7642C47.1781 92.1757 47.2372 93.1026 46.038 91.6387C45.5458 91.037 45.2074 90.8256 44.7349 90.3138C43.814 89.3162 43.4955 88.3427 43.1998 88.0171C43.1037 87.9117 42.5748 87.5103 42.4392 87.4515C41.9363 87.2341 29.4155 87.3648 27.0887 87.3631C26.2973 87.3626 25.3491 87.2583 24.9436 87.7799C24.0981 88.8681 24.8797 89.5353 26.001 90.9013C26.5955 91.6256 27.8638 93.0208 28.5516 93.611C28.9569 93.958 29.3894 94.6383 30.1495 94.6383Z" fill="none" opacity="1" stroke="#5e5e5e" stroke-linecap="butt" stroke-linejoin="miter" stroke-width="0.56693"/>
<path d="M83.8206 12.5569C84.5671 12.5569 85.2069 12.2576 85.8068 11.859C85.8987 9.93342 85.6099 10.4957 84.2778 9.19273C83.9704 8.89239 83.8179 8.66507 83.4591 8.35924C82.9861 7.95677 82.9631 7.89198 82.3315 7.63776C82.3058 7.62788 82.2774 7.6147 82.2522 7.60482C81.3581 7.24134 76.8536 7.42637 75.8413 7.42637L64.0357 7.42582C63.0759 7.42088 63.1421 7.30338 62.4531 7.73605C62.3984 7.77009 61.6776 8.01992 62.231 8.7079L63.9493 10.3919C64.2763 10.6368 64.5508 10.6889 64.9298 11.1655C65.1934 11.4961 65.2639 11.8134 65.6675 12.066C66.7744 12.7578 68.5845 12.4635 70.3755 12.4635C74.2904 12.4635 79.181 12.3773 83.0621 12.4597C83.4116 12.4674 83.6735 12.5569 83.8206 12.5569" fill="#5e5e5e" fill-rule="evenodd" opacity="1" stroke="#5e5e5e" stroke-linecap="butt" stroke-linejoin="miter" stroke-width="0.56693"/>
<path d="M83.8206 12.5569C84.5671 12.5569 85.2069 12.2576 85.8068 11.859C85.8987 9.93342 85.6099 10.4957 84.2778 9.19273C83.9704 8.89239 83.8179 8.66507 83.4591 8.35924C82.9861 7.95677 82.9631 7.89198 82.3315 7.63776C82.3058 7.62788 82.2774 7.6147 82.2522 7.60482C81.3581 7.24134 76.8536 7.42637 75.8413 7.42637L64.0357 7.42582C63.0759 7.42088 63.1421 7.30338 62.4531 7.73605C62.3984 7.77009 61.6776 8.01992 62.231 8.7079L63.9493 10.3919C64.2763 10.6368 64.5508 10.6889 64.9298 11.1655C65.1934 11.4961 65.2639 11.8134 65.6675 12.066C66.7744 12.7578 68.5845 12.4635 70.3755 12.4635C74.2904 12.4635 79.181 12.3773 83.0621 12.4597C83.4116 12.4674 83.6735 12.5569 83.8206 12.5569Z" fill="#5e5e5e" fill-rule="nonzero" opacity="1" stroke="#5e5e5e" stroke-linecap="butt" stroke-linejoin="miter" stroke-width="0.56693"/>
<path d="M53.0312 11.5125C53.0312 13.0384 52.7928 13.9213 53.9792 14.1426C54.7428 14.1426 55.2383 12.7485 55.5489 12.0957C55.8929 11.372 56.4026 10.4226 56.7509 9.6836L57.954 7.26769C58.1536 6.87456 58.2324 6.32055 58.7153 6.16736C59.1128 6.04107 69.5995 6.11794 71.3598 6.12069C71.9067 6.12178 72.6488 6.25301 72.9796 5.89831C73.2694 5.58699 73.4849 5.06757 73.6506 4.70079L72.7806 4.16161L54.5252 4.16161C52.5732 4.16161 53.4142 7.35499 53.1968 9.41181C53.1508 9.84612 53.0312 11.0859 53.0312 11.5125" fill="#5e5e5e" fill-rule="evenodd" opacity="1" stroke="#5e5e5e" stroke-linecap="butt" stroke-linejoin="miter" stroke-width="0.56693"/>
<path d="M53.0312 11.5125C53.0312 13.0384 52.7928 13.9213 53.9792 14.1426C54.7428 14.1426 55.2383 12.7485 55.5489 12.0957C55.8929 11.372 56.4026 10.4226 56.7509 9.6836L57.954 7.26769C58.1536 6.87456 58.2324 6.32055 58.7153 6.16736C59.1128 6.04107 69.5995 6.11794 71.3598 6.12069C71.9067 6.12178 72.6488 6.25301 72.9796 5.89831C73.2694 5.58699 73.4849 5.06757 73.6506 4.70079L72.7806 4.16161L54.5252 4.16161C52.5732 4.16161 53.4142 7.35499 53.1968 9.41181C53.1508 9.84612 53.0312 11.0859 53.0312 11.5125Z" fill="none" opacity="1" stroke="#5e5e5e" stroke-linecap="butt" stroke-linejoin="miter" stroke-width="0.56693"/>
<path d="M54.8533 2.85592L68.6266 2.85592C69.1554 2.85592 69.886 2.03891 70.1485 1.749C72.1719-0.484066 65.1748 0.0578656 64.3638 0.0578656L53.4326 0.0578656C51.4062 0.0578656 51.0339 1.19389 53.3286 2.50232C53.7444 2.73952 54.295 2.85592 54.8533 2.85592" fill="#5e5e5e" fill-rule="evenodd" opacity="1" stroke="#5e5e5e" stroke-linecap="butt" stroke-linejoin="miter" stroke-width="0.56693"/>
<path d="M54.8533 2.85592L68.6266 2.85592C69.1554 2.85592 69.886 2.03891 70.1485 1.749C72.1719-0.484066 65.1748 0.0578656 64.3638 0.0578656L53.4326 0.0578656C51.4062 0.0578656 51.0339 1.19389 53.3286 2.50232C53.7444 2.73952 54.295 2.85592 54.8533 2.85592Z" fill="none" opacity="1" stroke="#5e5e5e" stroke-linecap="butt" stroke-linejoin="miter" stroke-width="0.56693"/>
<path d="M36.2149 1.86156C36.2149 2.39196 37.452 7.16172 37.7361 8.17146C38.0636 9.33384 38.2599 10.236 39.0407 11.2572C39.7736 12.217 40.4675 11.2479 40.5907 10.3277C40.7221 9.34427 41.3717 6.79934 41.4191 5.92192C41.4655 5.06812 41.8314 3.75859 41.9461 2.93389C42.017 2.42271 42.1559 1.82587 41.9673 1.41352L40.862 0.711258C40.0267 0.711258 38.8 0.830406 38.0196 0.894647C36.9614 0.980851 36.2149 0.69204 36.2149 1.86156" fill="#0f9647" fill-rule="evenodd" opacity="1" stroke="none"/>
<path d="M36.2149 1.86156C36.2149 2.39196 37.452 7.16172 37.7361 8.17146C38.0636 9.33384 38.2599 10.236 39.0407 11.2572C39.7736 12.217 40.4675 11.2479 40.5907 10.3277C40.7221 9.34427 41.3717 6.79934 41.4191 5.92192C41.4655 5.06812 41.8314 3.75859 41.9461 2.93389C42.017 2.42271 42.1559 1.82587 41.9673 1.41352L40.862 0.711258C40.0267 0.711258 38.8 0.830406 38.0196 0.894647C36.9614 0.980851 36.2149 0.69204 36.2149 1.86156Z" fill="#5e5e5e" fill-rule="nonzero" opacity="1" stroke="#5e5e5e" stroke-linecap="butt" stroke-linejoin="miter" stroke-width="0.56693"/>
<path d="M53.9372 97.8899C53.3935 98.0508 53.2397 98.585 53.2484 99.1286C53.2625 100.018 54.7062 104.174 55.3258 104.92C55.8847 105.592 56.0362 105.664 56.6027 105.66C57.499 105.655 57.5958 105.078 58.858 103.815C60.4805 102.193 62.0566 101.184 60.7813 99.8792C60.474 99.5646 60.223 99.5382 59.547 99.1478C58.4019 98.4862 55.2777 97.4929 53.9372 97.8899" fill="#5e5e5e" fill-rule="evenodd" opacity="1" stroke="#5e5e5e" stroke-linecap="butt" stroke-linejoin="miter" stroke-width="0.56693"/>
<path d="M53.9372 97.8899C53.3935 98.0508 53.2397 98.585 53.2484 99.1286C53.2625 100.018 54.7062 104.174 55.3258 104.92C55.8847 105.592 56.0362 105.664 56.6027 105.66C57.499 105.655 57.5958 105.078 58.858 103.815C60.4805 102.193 62.0566 101.184 60.7813 99.8792C60.474 99.5646 60.223 99.5382 59.547 99.1478C58.4019 98.4862 55.2777 97.4929 53.9372 97.8899Z" fill="none" opacity="1" stroke="#5e5e5e" stroke-linecap="butt" stroke-linejoin="miter" stroke-width="0.56693"/>
<path d="M57.2136 117.732C56.2024 117.979 55.1087 120.628 54.9228 121.343C54.8478 121.63 54.7686 121.953 54.7111 122.152C54.4005 123.228 53.8596 125.705 55.3985 125.754C55.976 125.772 56.3462 125.714 56.8882 125.543C58.496 125.035 61.846 124.192 62.1058 122.767C62.3847 121.235 61.5578 121.602 60.5713 120.382L57.9978 117.913C57.6981 117.717 57.5204 117.657 57.2136 117.732" fill="#0f9647" fill-rule="evenodd" opacity="1" stroke="none"/>
<path d="M57.2136 117.732C56.2024 117.979 55.1087 120.628 54.9228 121.343C54.8478 121.63 54.7686 121.953 54.7111 122.152C54.4005 123.228 53.8596 125.705 55.3985 125.754C55.976 125.772 56.3462 125.714 56.8882 125.543C58.496 125.035 61.846 124.192 62.1058 122.767C62.3847 121.235 61.5578 121.602 60.5713 120.382L57.9978 117.913C57.6981 117.717 57.5204 117.657 57.2136 117.732Z" fill="#5e5e5e" fill-rule="nonzero" opacity="1" stroke="#5e5e5e" stroke-linecap="butt" stroke-linejoin="miter" stroke-width="0.56693"/>
<path d="M55.7256 114.163L55.7256 108.679C54.5695 107.633 54.955 107.79 54.0886 107.79C53.1523 107.79 50.9482 108.966 50.1161 109.412C48.9088 110.058 47.3342 110.699 48.4335 112.379C49.085 113.375 50.4964 113.575 51.9584 114.436C52.9684 115.031 55.7256 115.942 55.7256 114.163" fill="#5e5e5e" fill-rule="evenodd" opacity="1" stroke="#5e5e5e" stroke-linecap="butt" stroke-linejoin="miter" stroke-width="0.56693"/>
<path d="M55.7256 114.163L55.7256 108.679C54.5695 107.633 54.955 107.79 54.0886 107.79C53.1523 107.79 50.9482 108.966 50.1161 109.412C48.9088 110.058 47.3342 110.699 48.4335 112.379C49.085 113.375 50.4964 113.575 51.9584 114.436C52.9684 115.031 55.7256 115.942 55.7256 114.163Z" fill="none" opacity="1" stroke="#5e5e5e" stroke-linecap="butt" stroke-linejoin="miter" stroke-width="0.56693"/>
<path d="M66.7333 91.7469C66.2767 91.9012 65.8797 92.7155 65.4985 93.258C64.8122 94.2347 64.4781 95.3576 64.0236 96.6139C63.8312 97.1443 63.6687 97.477 63.7097 98.1573C63.8131 99.8501 65.8808 99.2055 66.1094 99.2038L69.9418 99.2867C70.376 99.2653 70.9885 98.9809 71.1055 98.5532C71.4128 97.4292 70.2863 95.2637 69.746 94.2886C69.1871 93.2788 68.1984 91.2522 66.7333 91.7469" fill="#5e5e5e" fill-rule="evenodd" opacity="1" stroke="#5e5e5e" stroke-linecap="butt" stroke-linejoin="miter" stroke-width="0.56693"/>
<path d="M66.7333 91.7469C66.2767 91.9012 65.8797 92.7155 65.4985 93.258C64.8122 94.2347 64.4781 95.3576 64.0236 96.6139C63.8312 97.1443 63.6687 97.477 63.7097 98.1573C63.8131 99.8501 65.8808 99.2055 66.1094 99.2038L69.9418 99.2867C70.376 99.2653 70.9885 98.9809 71.1055 98.5532C71.4128 97.4292 70.2863 95.2637 69.746 94.2886C69.1871 93.2788 68.1984 91.2522 66.7333 91.7469Z" fill="none" opacity="1" stroke="#5e5e5e" stroke-linecap="butt" stroke-linejoin="miter" stroke-width="0.56693"/>
<path d="M65.8939 123.274C63.2651 123.274 65.9617 127.509 66.087 127.789C66.2499 128.153 66.548 128.953 66.8591 129.314L68.5172 130.829L69.3922 130.822C70.9879 128.201 70.5149 129.477 71.6764 126.653C72.0937 125.638 72.7691 124.072 71.6961 123.362C70.9261 122.853 70.8933 123.253 70.055 123.28L65.8939 123.274" fill="#5e5e5e" fill-rule="evenodd" opacity="1" stroke="#5e5e5e" stroke-linecap="butt" stroke-linejoin="miter" stroke-width="0.56693"/>
<path d="M65.8939 123.274C63.2651 123.274 65.9617 127.509 66.087 127.789C66.2499 128.153 66.548 128.953 66.8591 129.314L68.5172 130.829L69.3922 130.822C70.9879 128.201 70.5149 129.477 71.6764 126.653C72.0937 125.638 72.7691 124.072 71.6961 123.362C70.9261 122.853 70.8933 123.253 70.055 123.28L65.8939 123.274Z" fill="none" opacity="1" stroke="#5e5e5e" stroke-linecap="butt" stroke-linejoin="miter" stroke-width="0.56693"/>
<path d="M133.949 107.756C133.968 106.565 133.84 106.26 133.765 104.956L133.419 102.993C133.32 102.556 133.292 102.697 133.184 102.14C132.85 100.409 131.646 98.0744 130.512 96.9268C130.087 96.4975 129.962 96.1894 129.075 96.213C128.41 96.2317 127.828 96.6776 127.763 97.1706C127.674 97.8405 128.059 98.4071 128.373 98.7453C128.956 99.3729 129.65 100.797 129.97 101.637C130.064 101.884 130.837 104.729 130.897 105.177C131.144 107.026 131.202 109.491 133.949 107.756" fill="#0f9647" fill-rule="evenodd" opacity="1" stroke="none"/>
<path d="M133.949 107.756C133.968 106.565 133.84 106.26 133.765 104.956L133.419 102.993C133.32 102.556 133.292 102.697 133.184 102.14C132.85 100.409 131.646 98.0744 130.512 96.9268C130.087 96.4975 129.962 96.1894 129.075 96.213C128.41 96.2317 127.828 96.6776 127.763 97.1706C127.674 97.8405 128.059 98.4071 128.373 98.7453C128.956 99.3729 129.65 100.797 129.97 101.637C130.064 101.884 130.837 104.729 130.897 105.177C131.144 107.026 131.202 109.491 133.949 107.756Z" fill="#5e5e5e" fill-rule="nonzero" opacity="1" stroke="#5e5e5e" stroke-linecap="butt" stroke-linejoin="miter" stroke-width="0.56693"/>
<path d="M29.9918 99.6321C29.5947 99.7606 29.3894 100.349 29.2294 100.743C28.8971 101.562 28.1173 107.63 27.97 108.808C27.8298 109.927 27.7986 111.275 27.6897 112.333C27.6561 112.66 27.3641 117.396 27.4224 117.657C27.6694 118.756 29.4616 119.238 30.9862 119.779C31.7773 120.059 31.7332 120.089 32.432 119.738C32.8415 119.532 33.1816 119.157 33.3429 118.685C33.4503 118.37 33.4172 118.204 33.4869 117.945C33.5676 117.645 33.6315 117.584 33.7015 117.211C33.7946 116.715 34.7004 114.537 35.0823 112.951C35.5104 111.175 36.555 107.072 36.786 105.28C36.927 104.185 37.8402 102.042 35.7467 101.32C34.2796 100.815 33.63 100.888 31.5147 99.9582C31.0193 99.7403 30.5603 99.4482 29.9918 99.6321" fill="#0f9647" fill-rule="evenodd" opacity="1" stroke="none"/>
<path d="M29.9918 99.6321C29.5947 99.7606 29.3894 100.349 29.2294 100.743C28.8971 101.562 28.1173 107.63 27.97 108.808C27.8298 109.927 27.7986 111.275 27.6897 112.333C27.6561 112.66 27.3641 117.396 27.4224 117.657C27.6694 118.756 29.4616 119.238 30.9862 119.779C31.7773 120.059 31.7332 120.089 32.432 119.738C32.8415 119.532 33.1816 119.157 33.3429 118.685C33.4503 118.37 33.4172 118.204 33.4869 117.945C33.5676 117.645 33.6315 117.584 33.7015 117.211C33.7946 116.715 34.7004 114.537 35.0823 112.951C35.5104 111.175 36.555 107.072 36.786 105.28C36.927 104.185 37.8402 102.042 35.7467 101.32C34.2796 100.815 33.63 100.888 31.5147 99.9582C31.0193 99.7403 30.5603 99.4482 29.9918 99.6321Z" fill="#5e5e5e" fill-rule="nonzero" opacity="1" stroke="none"/>
<path d="M28.2241 116.795C28.2241 116.315 28.3316 115.22 28.388 114.693C28.4519 114.095 28.4824 113.099 28.5029 112.519C28.5461 111.296 29.2649 105.054 29.4396 104.225C29.7024 102.976 29.7357 102.325 29.8959 101.212C29.9604 100.763 30.0215 100.736 30.1482 100.35C31.2253 100.71 34.4097 102.012 34.9771 102.08C36.9308 102.312 36.3303 102.72 36.1081 104.272C35.6215 107.67 34.6803 111.698 33.6443 114.92C33.1566 116.437 33.6545 115.418 32.8738 117.447C32.0712 119.532 32.0658 119.51 30.1877 118.725C28.3694 117.966 28.2241 118.132 28.2241 116.795" fill="#adadad" fill-rule="evenodd" opacity="1" stroke="none"/>
<path d="M13.5447 105.938C13.5447 106.655 14.8158 107.904 15.6589 108.962C15.8023 109.142 15.9304 109.262 16.1189 109.488C17.3785 111.001 17.2087 110.452 17.7605 110.908C17.973 111.083 18.007 111.235 18.436 111.215C19.3011 111.174 19.5295 110.263 20.4339 109.138C21.6977 107.567 21.835 107.157 22.8318 105.507L24.3921 103.01C24.8853 102.24 27.1093 98.3637 27.1093 97.3831C27.1093 96.5288 25.056 95.5514 24.3895 94.713L22.9896 92.833C22.2178 91.7782 21.0575 90.4544 19.8416 91.7595L19.6119 91.9676C19.4098 92.1066 19.4799 91.9715 19.2787 92.1774L17.9047 95.0798C16.7095 97.7076 16.4293 97.9953 15.2789 101.098C15.23 101.23 15.1727 101.412 15.1377 101.502L14.0348 104.243C13.8229 104.777 13.5447 105.347 13.5447 105.938" fill="#0f9647" fill-rule="evenodd" opacity="1" stroke="none"/>
<path d="M13.5447 105.938C13.5447 106.655 14.8158 107.904 15.6589 108.962C15.8023 109.142 15.9304 109.262 16.1189 109.488C17.3785 111.001 17.2087 110.452 17.7605 110.908C17.973 111.083 18.007 111.235 18.436 111.215C19.3011 111.174 19.5295 110.263 20.4339 109.138C21.6977 107.567 21.835 107.157 22.8318 105.507L24.3921 103.01C24.8853 102.24 27.1093 98.3637 27.1093 97.3831C27.1093 96.5288 25.056 95.5514 24.3895 94.713L22.9896 92.833C22.2178 91.7782 21.0575 90.4544 19.8416 91.7595L19.6119 91.9676C19.4098 92.1066 19.4799 91.9715 19.2787 92.1774L17.9047 95.0798C16.7095 97.7076 16.4293 97.9953 15.2789 101.098C15.23 101.23 15.1727 101.412 15.1377 101.502L14.0348 104.243C13.8229 104.777 13.5447 105.347 13.5447 105.938Z" fill="#5e5e5e" fill-rule="nonzero" opacity="1" stroke="none"/>
<path d="M20.3143 92.1335C21.1873 91.9748 21.731 92.2718 22.1805 92.9867C22.5646 93.5973 23.068 94.1238 23.4874 94.6361C26.3825 98.1727 27.5376 96.1345 24.4162 101.177C24.2004 101.526 24.1333 101.712 23.9727 102.041L20.6061 107.548C18.9653 109.989 18.8876 110.848 17.5129 109.958L15.217 107.322C13.9679 105.803 14.28 106.319 15.0006 104.018C15.293 103.084 15.9219 101.37 16.3812 100.464L17.8795 97.0268C18.5637 95.5481 19.99 93.0098 20.3143 92.1335" fill="#adadad" fill-rule="evenodd" opacity="1" stroke="none"/>
<path d="M20.3143 92.1335C21.1873 91.9748 21.731 92.2718 22.1805 92.9867C22.5646 93.5973 23.068 94.1238 23.4874 94.6361C26.3825 98.1727 27.5376 96.1345 24.4162 101.177C24.2004 101.526 24.1333 101.712 23.9727 102.041L20.6061 107.548C18.9653 109.989 18.8876 110.848 17.5129 109.958L15.217 107.322C13.9679 105.803 14.28 106.319 15.0006 104.018C15.293 103.084 15.9219 101.37 16.3812 100.464L17.8795 97.0268C18.5637 95.5481 19.99 93.0098 20.3143 92.1335Z" fill="none" opacity="1" stroke="#5e5e5e" stroke-linecap="butt" stroke-linejoin="miter" stroke-width="0.216"/>
<path d="M7.74098 95.1978C8.37113 95.1978 10.4699 93.9932 10.9852 93.6209L13.0805 92.2087C13.3476 92.0138 13.5161 91.9539 13.8045 91.7376L16.4854 89.7126L18.8407 87.294C19.0738 86.7196 17.875 84.9385 17.4076 83.6201L16.0859 80.1292C15.8756 79.6158 15.8864 79.5109 15.5436 79.1408C14.8784 78.5907 14.5355 78.5017 13.9715 78.5017C13.0229 78.5017 9.13334 82.6642 8.22162 83.7107C7.68159 84.3306 6.9232 85.0252 6.41823 85.6402C6.14928 85.9674 5.94186 86.2996 5.64535 86.6192C3.49551 88.9368 4.71292 89.5501 5.54112 91.8018C5.69921 92.2312 5.89166 92.6913 6.04226 93.1701C6.11423 93.3996 6.17728 93.6533 6.25094 93.8323C6.46056 94.3429 7.13877 95.1978 7.74098 95.1978" fill="#0f9647" fill-rule="evenodd" opacity="1" stroke="none"/>
<path d="M7.74098 95.1978C8.37113 95.1978 10.4699 93.9932 10.9852 93.6209L13.0805 92.2087C13.3476 92.0138 13.5161 91.9539 13.8045 91.7376L16.4854 89.7126L18.8407 87.294C19.0738 86.7196 17.875 84.9385 17.4076 83.6201L16.0859 80.1292C15.8756 79.6158 15.8864 79.5109 15.5436 79.1408C14.8784 78.5907 14.5355 78.5017 13.9715 78.5017C13.0229 78.5017 9.13334 82.6642 8.22162 83.7107C7.68159 84.3306 6.9232 85.0252 6.41823 85.6402C6.14928 85.9674 5.94186 86.2996 5.64535 86.6192C3.49551 88.9368 4.71292 89.5501 5.54112 91.8018C5.69921 92.2312 5.89166 92.6913 6.04226 93.1701C6.11423 93.3996 6.17728 93.6533 6.25094 93.8323C6.46056 94.3429 7.13877 95.1978 7.74098 95.1978Z" fill="#5e5e5e" fill-rule="nonzero" opacity="1" stroke="none"/>
<path d="M13.6571 79.5071C14.0781 79.1875 14.725 79.3138 14.9931 79.6921C15.3654 80.2187 16.1069 82.7559 16.413 83.5158C16.5655 83.8936 16.805 84.2867 17.0287 84.6661C18.9666 87.9556 17.8282 87.3719 16.2949 88.8616C15.9518 89.1948 15.7655 89.3985 15.3718 89.6863L14.3518 90.4193C12.5476 91.6536 11.6237 92.6803 9.19569 93.8065C8.22632 94.2562 7.5673 94.7811 7.02109 93.4919C6.15759 91.4543 6.09591 91.7348 5.5234 89.7368C5.05813 88.1132 4.8522 88.7539 6.79611 86.4544C7.3415 85.8087 7.90307 85.235 8.46705 84.6238C8.78745 84.2768 9.02414 84.1094 9.31064 83.7096C10.0487 82.6796 11.3178 81.4727 12.3329 80.7134L13.6571 79.5071" fill="#adadad" fill-rule="evenodd" opacity="1" stroke="none"/>
<path d="M13.6571 79.5071C14.0781 79.1875 14.725 79.3138 14.9931 79.6921C15.3654 80.2187 16.1069 82.7559 16.413 83.5158C16.5655 83.8936 16.805 84.2867 17.0287 84.6661C18.9666 87.9556 17.8282 87.3719 16.2949 88.8616C15.9518 89.1948 15.7655 89.3985 15.3718 89.6863L14.3518 90.4193C12.5476 91.6536 11.6237 92.6803 9.19569 93.8065C8.22632 94.2562 7.5673 94.7811 7.02109 93.4919C6.15759 91.4543 6.09591 91.7348 5.5234 89.7368C5.05813 88.1132 4.8522 88.7539 6.79611 86.4544C7.3415 85.8087 7.90307 85.235 8.46705 84.6238C8.78745 84.2768 9.02414 84.1094 9.31064 83.7096C10.0487 82.6796 11.3178 81.4727 12.3329 80.7134L13.6571 79.5071Z" fill="none" opacity="1" stroke="#5e5e5e" stroke-linecap="butt" stroke-linejoin="miter" stroke-width="0.216"/>
<path d="M11.0164 62.2723C10.1807 62.6413 8.90815 62.8324 7.14195 63.5495C6.09224 63.9755 1.45973 65.832 1.0028 66.163C-0.655515 67.3622 0.587104 68.7958 0.631104 71.9381C0.639225 72.5405 0.88446 74.5144 1.06753 75.019C1.42982 76.0183 2.25012 76.0787 3.47757 76.077C4.04494 76.0759 4.5683 76.1215 5.00835 75.9919C5.66329 75.7998 8.26132 75.6015 9.58877 75.327C10.5079 75.137 11.5773 75.0118 12.5986 74.8252C13.3021 74.6967 13.229 74.5951 13.6603 74.1525C14.1269 73.6738 13.9963 73.5002 14.0437 72.9775C14.0792 72.5871 13.9 71.5187 13.7973 71.008C13.2194 68.1353 13.3723 68.0381 13.0979 65.2379C13.0425 64.6712 13.1305 64.0876 13.0594 63.5242C13.0028 63.0756 12.8678 62.6221 12.4384 62.3959C12.1032 62.2191 11.4449 62.0824 11.0164 62.2723" fill="#0f9647" fill-rule="evenodd" opacity="1" stroke="none"/>
<path d="M11.0164 62.2723C10.1807 62.6413 8.90815 62.8324 7.14195 63.5495C6.09224 63.9755 1.45973 65.832 1.0028 66.163C-0.655515 67.3622 0.587104 68.7958 0.631104 71.9381C0.639225 72.5405 0.88446 74.5144 1.06753 75.019C1.42982 76.0183 2.25012 76.0787 3.47757 76.077C4.04494 76.0759 4.5683 76.1215 5.00835 75.9919C5.66329 75.7998 8.26132 75.6015 9.58877 75.327C10.5079 75.137 11.5773 75.0118 12.5986 74.8252C13.3021 74.6967 13.229 74.5951 13.6603 74.1525C14.1269 73.6738 13.9963 73.5002 14.0437 72.9775C14.0792 72.5871 13.9 71.5187 13.7973 71.008C13.2194 68.1353 13.3723 68.0381 13.0979 65.2379C13.0425 64.6712 13.1305 64.0876 13.0594 63.5242C13.0028 63.0756 12.8678 62.6221 12.4384 62.3959C12.1032 62.2191 11.4449 62.0824 11.0164 62.2723Z" fill="#5e5e5e" fill-rule="nonzero" opacity="1" stroke="none"/>
<path d="M1.00152 69.4174C1.00152 69.2065 1.08398 69.005 1.05343 68.697C0.968196 67.8388 0.717197 67.4204 1.43965 66.9361C1.80985 66.6874 2.14074 66.588 2.5212 66.3799C2.91682 66.163 3.16077 66.0823 3.56814 65.8891C5.83396 64.8151 5.6174 64.8848 7.97657 64.0601C9.18393 63.6379 11.3522 62.5397 12.0163 63.1552C12.0813 63.2151 12.3002 63.5154 12.3374 63.5967C12.4747 63.8954 12.4764 66.0538 12.5174 66.5759C12.6668 68.4851 12.8979 70.2289 13.2519 72.0826C13.3454 72.574 13.6118 73.0033 13.452 73.3877C12.9255 74.6555 8.71636 74.7807 7.31372 75.0217C5.23843 75.3786 4.37369 75.1233 2.76772 75.2913C2.28857 75.3413 1.94165 75.2814 1.7197 74.9141C1.48323 74.5232 1.20488 71.5011 1.18844 70.7313C1.17775 70.2432 1.00152 69.715 1.00152 69.4174" fill="#adadad" fill-rule="evenodd" opacity="1" stroke="none"/>
<path d="M1.00152 69.4174C1.00152 69.2065 1.08398 69.005 1.05343 68.697C0.968196 67.8388 0.717197 67.4204 1.43965 66.9361C1.80985 66.6874 2.14074 66.588 2.5212 66.3799C2.91682 66.163 3.16077 66.0823 3.56814 65.8891C5.83396 64.8151 5.6174 64.8848 7.97657 64.0601C9.18393 63.6379 11.3522 62.5397 12.0163 63.1552C12.0813 63.2151 12.3002 63.5154 12.3374 63.5967C12.4747 63.8954 12.4764 66.0538 12.5174 66.5759C12.6668 68.4851 12.8979 70.2289 13.2519 72.0826C13.3454 72.574 13.6118 73.0033 13.452 73.3877C12.9255 74.6555 8.71636 74.7807 7.31372 75.0217C5.23843 75.3786 4.37369 75.1233 2.76772 75.2913C2.28857 75.3413 1.94165 75.2814 1.7197 74.9141C1.48323 74.5232 1.20488 71.5011 1.18844 70.7313C1.17775 70.2432 1.00152 69.715 1.00152 69.4174Z" fill="none" opacity="1" stroke="#5e5e5e" stroke-linecap="butt" stroke-linejoin="miter" stroke-width="0.216"/>
<path d="M1.62827 45.1809C1.27773 45.3868 1.10684 45.6844 0.883388 46.0797C0.528354 46.7079 0.686649 46.7595 0.607398 47.5688C0.562747 48.024 0.478158 48.5901 0.400186 49.0914C0.317091 49.6267 0.347852 50.1989 0.276716 50.7726C-0.192177 54.5634-0.309453 54.1242 1.95084 55.3777C3.547 56.2633 7.19773 57.7096 9.27066 58.4547C9.98076 58.71 11.2567 59.3008 12.1428 58.6952C12.9723 58.128 13.0861 57.239 13.081 56.2584C13.0737 54.911 13.4172 51.2289 13.5815 49.8315C13.7133 48.7092 14.2947 47.4008 13.4435 46.6941C13.1 46.4086 12.9413 46.3488 12.5521 46.2758C10.9448 45.9727 6.34517 45.1968 4.89983 45.2029C3.98726 45.2073 2.43575 44.706 1.62827 45.1809" fill="#0f9647" fill-rule="evenodd" opacity="1" stroke="none"/>
<path d="M1.62827 45.1809C1.27773 45.3868 1.10684 45.6844 0.883388 46.0797C0.528354 46.7079 0.686649 46.7595 0.607398 47.5688C0.562747 48.024 0.478158 48.5901 0.400186 49.0914C0.317091 49.6267 0.347852 50.1989 0.276716 50.7726C-0.192177 54.5634-0.309453 54.1242 1.95084 55.3777C3.547 56.2633 7.19773 57.7096 9.27066 58.4547C9.98076 58.71 11.2567 59.3008 12.1428 58.6952C12.9723 58.128 13.0861 57.239 13.081 56.2584C13.0737 54.911 13.4172 51.2289 13.5815 49.8315C13.7133 48.7092 14.2947 47.4008 13.4435 46.6941C13.1 46.4086 12.9413 46.3488 12.5521 46.2758C10.9448 45.9727 6.34517 45.1968 4.89983 45.2029C3.98726 45.2073 2.43575 44.706 1.62827 45.1809Z" fill="#5e5e5e" fill-rule="nonzero" opacity="1" stroke="none"/>
<path d="M0.723174 51.8708C0.723174 51.0867 1.40483 47.9438 1.47532 47.0439C1.51591 46.5267 1.58 45.8557 2.0568 45.8557C4.27223 45.8557 3.57968 45.7256 5.48813 46.1072C5.93076 46.1813 6.40521 46.111 6.8555 46.1572L11.7881 46.793C12.8611 46.9121 13.2927 47.7797 13.2662 48.0322L12.6864 51.4271C12.6362 51.8043 12.4844 52.1969 12.4467 52.5406C12.3573 53.3522 12.3861 54.3311 12.3265 55.1531C12.2701 55.9284 12.1509 56.7476 12.1509 57.5734L11.4575 58.0747C10.9578 58.2367 5.72421 56.3287 5.40139 56.1859C4.88595 55.958 4.45124 55.8241 3.99453 55.6154C0.532631 54.0308 0.723174 54.425 0.723174 51.8708" fill="#fff200" fill-rule="evenodd" opacity="1" stroke="none"/>
<path d="M0.723174 51.8708C0.723174 51.0867 1.40483 47.9438 1.47532 47.0439C1.51591 46.5267 1.58 45.8557 2.0568 45.8557C4.27223 45.8557 3.57968 45.7256 5.48813 46.1072C5.93076 46.1813 6.40521 46.111 6.8555 46.1572L11.7881 46.793C12.8611 46.9121 13.2927 47.7797 13.2662 48.0322L12.6864 51.4271C12.6362 51.8043 12.4844 52.1969 12.4467 52.5406C12.3573 53.3522 12.3861 54.3311 12.3265 55.1531C12.2701 55.9284 12.1509 56.7476 12.1509 57.5734L11.4575 58.0747C10.9578 58.2367 5.72421 56.3287 5.40139 56.1859C4.88595 55.958 4.45124 55.8241 3.99453 55.6154C0.532631 54.0308 0.723174 54.425 0.723174 51.8708Z" fill="#adadad" fill-rule="nonzero" opacity="1" stroke="none"/>
<path d="M13.9715 42.5904C14.5723 42.5904 15.231 42.3027 15.5683 41.8475L16.6405 38.9682C18.1253 34.5207 19.7696 34.1331 17.4435 32.2641C16.7261 31.6875 16.0791 31.0012 15.2819 30.4845C13.316 29.2101 13.1376 28.811 10.4926 27.284C10.2482 27.1429 10.0974 27.1012 9.84361 26.9529C6.44601 24.9719 6.80595 26.3281 5.34632 29.1706C4.77039 30.2918 4.94961 30.053 4.64969 30.8821L4.54395 31.1198L4.27522 32.6682C4.31773 33.5258 4.82892 33.4808 5.40101 34.3725C6.23344 35.6694 7.29578 36.555 8.33607 37.8909L9.7041 39.3718C10.6413 40.2338 10.7342 40.4227 11.6796 41.1211C12.3118 41.5878 12.9366 42.5904 13.9715 42.5904" fill="#0f9647" fill-rule="evenodd" opacity="1" stroke="none"/>
<path d="M13.9715 42.5904C14.5723 42.5904 15.231 42.3027 15.5683 41.8475L16.6405 38.9682C18.1253 34.5207 19.7696 34.1331 17.4435 32.2641C16.7261 31.6875 16.0791 31.0012 15.2819 30.4845C13.316 29.2101 13.1376 28.811 10.4926 27.284C10.2482 27.1429 10.0974 27.1012 9.84361 26.9529C6.44601 24.9719 6.80595 26.3281 5.34632 29.1706C4.77039 30.2918 4.94961 30.053 4.64969 30.8821L4.54395 31.1198L4.27522 32.6682C4.31773 33.5258 4.82892 33.4808 5.40101 34.3725C6.23344 35.6694 7.29578 36.555 8.33607 37.8909L9.7041 39.3718C10.6413 40.2338 10.7342 40.4227 11.6796 41.1211C12.3118 41.5878 12.9366 42.5904 13.9715 42.5904Z" fill="#5e5e5e" fill-rule="nonzero" opacity="1" stroke="none"/>
<path d="M5.09318 32.7879C4.91863 32.0796 5.60608 30.6712 5.80131 30.0865C6.13474 29.0877 6.41227 28.4711 6.80743 27.5767C7.03815 27.055 7.01147 26.8365 7.73775 26.8135C8.82508 26.7789 11.5959 28.8434 12.5892 29.5643C14.1495 30.6959 14.6701 31.0023 16.2103 32.2976C18.4834 34.2094 18.1548 33.3704 16.3386 37.6971C16.1835 38.0666 16.0515 38.4889 15.8548 38.9424C15.4028 39.9867 15.2637 42.3329 13.5988 41.7091C13.4741 41.6625 12.8274 41.0129 12.677 40.885L11.704 40.1125C10.9234 39.4382 8.9385 37.4456 8.31923 36.5896C7.87616 35.9774 7.15781 35.313 6.66563 34.7481C6.32915 34.3615 5.17926 33.1376 5.09318 32.7879" fill="#adadad" fill-rule="evenodd" opacity="1" stroke="none"/>
<path d="M5.09318 32.7879C4.91863 32.0796 5.60608 30.6712 5.80131 30.0865C6.13474 29.0877 6.41227 28.4711 6.80743 27.5767C7.03815 27.055 7.01147 26.8365 7.73775 26.8135C8.82508 26.7789 11.5959 28.8434 12.5892 29.5643C14.1495 30.6959 14.6701 31.0023 16.2103 32.2976C18.4834 34.2094 18.1548 33.3704 16.3386 37.6971C16.1835 38.0666 16.0515 38.4889 15.8548 38.9424C15.4028 39.9867 15.2637 42.3329 13.5988 41.7091C13.4741 41.6625 12.8274 41.0129 12.677 40.885L11.704 40.1125C10.9234 39.4382 8.9385 37.4456 8.31923 36.5896C7.87616 35.9774 7.15781 35.313 6.66563 34.7481C6.32915 34.3615 5.17926 33.1376 5.09318 32.7879Z" fill="none" opacity="1" stroke="#5e5e5e" stroke-linecap="butt" stroke-linejoin="miter" stroke-width="0.216"/>
<path d="M13.5447 14.6928C13.5447 16.1643 13.4991 15.4274 13.7979 16.2774C14.1412 17.2542 14.8531 19.5103 15.1853 20.1708C15.8756 21.5424 16.996 24.4277 17.7421 26.0541C17.9976 26.6108 18.2623 26.9765 18.5135 27.4636C18.9128 28.2377 19.7038 30.4099 21.0842 29.8344C21.1865 29.7916 21.6635 29.4737 21.752 29.4138C22.515 28.8955 23.3391 27.3653 24.7821 25.9794L26.831 23.7952C27.0759 23.1759 25.9047 21.2942 25.5334 20.6397C24.1929 18.276 22.6269 15.434 21.1822 13.1713C20.9396 12.7913 20.6219 12.3696 20.3611 12.0095C19.736 11.1452 18.6594 8.80124 17.1619 10.4358L15.2054 12.4207C14.3247 13.4167 13.9981 14.0981 13.9639 14.1371C13.6531 14.4907 13.5447 14.1333 13.5447 14.6928" fill="#0f9647" fill-rule="evenodd" opacity="1" stroke="none"/>
<path d="M13.5447 14.6928C13.5447 16.1643 13.4991 15.4274 13.7979 16.2774C14.1412 17.2542 14.8531 19.5103 15.1853 20.1708C15.8756 21.5424 16.996 24.4277 17.7421 26.0541C17.9976 26.6108 18.2623 26.9765 18.5135 27.4636C18.9128 28.2377 19.7038 30.4099 21.0842 29.8344C21.1865 29.7916 21.6635 29.4737 21.752 29.4138C22.515 28.8955 23.3391 27.3653 24.7821 25.9794L26.831 23.7952C27.0759 23.1759 25.9047 21.2942 25.5334 20.6397C24.1929 18.276 22.6269 15.434 21.1822 13.1713C20.9396 12.7913 20.6219 12.3696 20.3611 12.0095C19.736 11.1452 18.6594 8.80124 17.1619 10.4358L15.2054 12.4207C14.3247 13.4167 13.9981 14.0981 13.9639 14.1371C13.6531 14.4907 13.5447 14.1333 13.5447 14.6928Z" fill="#5e5e5e" fill-rule="nonzero" opacity="1" stroke="none"/>
<path d="M25.9944 23.3565C25.9944 23.7996 25.8515 23.9319 25.5777 24.2526L24.4989 25.3667C23.7388 26.1392 22.8232 26.7981 22.4413 27.3559C20.736 29.846 20.2998 29.7142 19.0157 26.7377C18.5831 25.7356 16.8804 22.5642 16.6087 21.7066C16.2799 20.6694 15.8877 19.82 15.5566 18.9162C15.4417 18.6021 15.3667 18.3485 15.2383 18.0388C14.9807 17.4172 14.7854 16.9066 14.5361 16.3207C13.9237 14.8833 14.2518 15.0266 14.6032 14.5566L15.3462 13.3294C15.5109 13.0417 15.3479 13.2487 15.5498 12.9846L17.6678 11.0618C17.6776 11.0535 17.8402 10.9217 17.8519 10.9135C18.0474 10.7746 17.9346 10.8191 18.2347 10.6911C19.2056 11.2106 18.9034 11.042 19.6044 12.0012C20.7753 13.6034 21.5494 15.3857 22.4103 16.7523C22.7135 17.2344 25.9944 22.4593 25.9944 23.3565" fill="#adadad" fill-rule="evenodd" opacity="1" stroke="none"/>
<path d="M25.9944 23.3565C25.9944 23.7996 25.8515 23.9319 25.5777 24.2526L24.4989 25.3667C23.7388 26.1392 22.8232 26.7981 22.4413 27.3559C20.736 29.846 20.2998 29.7142 19.0157 26.7377C18.5831 25.7356 16.8804 22.5642 16.6087 21.7066C16.2799 20.6694 15.8877 19.82 15.5566 18.9162C15.4417 18.6021 15.3667 18.3485 15.2383 18.0388C14.9807 17.4172 14.7854 16.9066 14.5361 16.3207C13.9237 14.8833 14.2518 15.0266 14.6032 14.5566L15.3462 13.3294C15.5109 13.0417 15.3479 13.2487 15.5498 12.9846L17.6678 11.0618C17.6776 11.0535 17.8402 10.9217 17.8519 10.9135C18.0474 10.7746 17.9346 10.8191 18.2347 10.6911C19.2056 11.2106 18.9034 11.042 19.6044 12.0012C20.7753 13.6034 21.5494 15.3857 22.4103 16.7523C22.7135 17.2344 25.9944 22.4593 25.9944 23.3565Z" fill="none" opacity="1" stroke="#5e5e5e" stroke-linecap="butt" stroke-linejoin="miter" stroke-width="0.216"/>
<path d="M27.1093 3.94527L28.4626 17.3711C28.5631 18.1431 28.695 19.7052 28.9109 20.212C29.2418 20.9884 29.8927 21.7565 30.8425 21.4315C31.1512 21.3255 32.579 20.5958 33.7039 20.2444C37.191 19.155 37.2474 19.9007 36.6341 16.2894C36.2611 14.0937 36.1511 13.1614 35.5335 10.8092C35.3152 9.97625 35.0065 9.00385 34.8298 8.22692C34.638 7.38245 34.3847 6.51053 34.0959 5.68747C33.8032 4.85289 34.224 5.27018 33.342 3.15516C33.2008 2.81694 33.0054 2.37054 32.8453 2.00212L31.8986 1.17687C31.3547 0.973164 28.934 1.80281 27.9193 2.58413C27.5925 2.83506 27.9189 2.57754 27.6433 2.74995C27.2932 2.96848 27.4338 2.7192 27.2829 3.26663C27.234 3.44452 27.1093 3.81185 27.1093 3.94527" fill="#0f9647" fill-rule="evenodd" opacity="1" stroke="none"/>
<path d="M27.1093 3.94527L28.4626 17.3711C28.5631 18.1431 28.695 19.7052 28.9109 20.212C29.2418 20.9884 29.8927 21.7565 30.8425 21.4315C31.1512 21.3255 32.579 20.5958 33.7039 20.2444C37.191 19.155 37.2474 19.9007 36.6341 16.2894C36.2611 14.0937 36.1511 13.1614 35.5335 10.8092C35.3152 9.97625 35.0065 9.00385 34.8298 8.22692C34.638 7.38245 34.3847 6.51053 34.0959 5.68747C33.8032 4.85289 34.224 5.27018 33.342 3.15516C33.2008 2.81694 33.0054 2.37054 32.8453 2.00212L31.8986 1.17687C31.3547 0.973164 28.934 1.80281 27.9193 2.58413C27.5925 2.83506 27.9189 2.57754 27.6433 2.74995C27.2932 2.96848 27.4338 2.7192 27.2829 3.26663C27.234 3.44452 27.1093 3.81185 27.1093 3.94527Z" fill="#5e5e5e" fill-rule="nonzero" opacity="1" stroke="none"/>
<path d="M29.9662 20.6716C29.5533 20.1944 29.1188 16.2807 29.0481 15.4713C29.0096 15.0304 28.9235 14.6016 28.8389 14.1673C28.3953 11.8947 28.2692 6.70764 28.0208 4.17863C27.9659 3.61858 27.8288 3.42201 28.3769 3.15022C28.639 3.02009 28.6638 3.08104 28.9272 2.93609C29.3384 2.70987 29.5238 2.33705 30.4883 2.21022C31.2832 2.10589 31.0736 1.99059 31.7367 1.93843C33.0532 3.26608 32.3583 2.63739 32.665 3.73333C32.8396 4.35653 33.2059 5.10107 33.3469 5.67539C33.4358 6.03833 33.4245 6.43421 33.5253 6.80592L34.9572 11.9683C35.321 13.2355 36.3766 17.6445 36.1101 18.6406C35.7023 18.8119 35.055 19.132 34.6628 19.2099C31.8937 19.759 30.9674 20.9768 29.9662 20.6716" fill="#adadad" fill-rule="evenodd" opacity="1" stroke="none"/>
<path d="M29.9662 20.6716C29.5533 20.1944 29.1188 16.2807 29.0481 15.4713C29.0096 15.0304 28.9235 14.6016 28.8389 14.1673C28.3953 11.8947 28.2692 6.70764 28.0208 4.17863C27.9659 3.61858 27.8288 3.42201 28.3769 3.15022C28.639 3.02009 28.6638 3.08104 28.9272 2.93609C29.3384 2.70987 29.5238 2.33705 30.4883 2.21022C31.2832 2.10589 31.0736 1.99059 31.7367 1.93843C33.0532 3.26608 32.3583 2.63739 32.665 3.73333C32.8396 4.35653 33.2059 5.10107 33.3469 5.67539C33.4358 6.03833 33.4245 6.43421 33.5253 6.80592L34.9572 11.9683C35.321 13.2355 36.3766 17.6445 36.1101 18.6406C35.7023 18.8119 35.055 19.132 34.6628 19.2099C31.8937 19.759 30.9674 20.9768 29.9662 20.6716Z" fill="none" opacity="1" stroke="#5e5e5e" stroke-linecap="butt" stroke-linejoin="miter" stroke-width="0.216"/>
<path d="M48.0763 21.5105C49.3213 21.5105 49.5883 20.5178 49.6887 19.2961C49.7379 18.7004 49.9094 18.1887 49.9579 17.6489C50.0217 16.9423 50.1738 16.6436 50.2298 16.1006L50.7987 11.0727C50.8361 10.32 50.8407 10.0114 50.9418 9.36623C51.1417 8.09239 51.0546 6.98657 51.0772 5.69571C51.098 4.49874 51.4662 3.54555 50.7982 2.63904C50.4759 2.20088 48.8381 1.70507 48.2568 1.46842C47.6061 1.20377 46.3302 0.5092 45.669 1.96863C45.342 2.69065 44.4288 5.3432 44.2762 6.1443C44.0043 7.57572 43.4284 9.11915 43.0907 10.5555C42.8279 11.6718 42.6196 12.5278 42.3236 13.6402L41.8492 15.8815C41.8058 16.0907 41.7092 16.4119 41.6603 16.7243C41.2025 19.6377 42.5481 19.6179 43.9069 19.9578L45.9756 20.6337C46.5188 20.8583 47.6382 21.5105 48.0763 21.5105" fill="#0f9647" fill-rule="evenodd" opacity="1" stroke="none"/>
<path d="M48.0763 21.5105C49.3213 21.5105 49.5883 20.5178 49.6887 19.2961C49.7379 18.7004 49.9094 18.1887 49.9579 17.6489C50.0217 16.9423 50.1738 16.6436 50.2298 16.1006L50.7987 11.0727C50.8361 10.32 50.8407 10.0114 50.9418 9.36623C51.1417 8.09239 51.0546 6.98657 51.0772 5.69571C51.098 4.49874 51.4662 3.54555 50.7982 2.63904C50.4759 2.20088 48.8381 1.70507 48.2568 1.46842C47.6061 1.20377 46.3302 0.5092 45.669 1.96863C45.342 2.69065 44.4288 5.3432 44.2762 6.1443C44.0043 7.57572 43.4284 9.11915 43.0907 10.5555C42.8279 11.6718 42.6196 12.5278 42.3236 13.6402L41.8492 15.8815C41.8058 16.0907 41.7092 16.4119 41.6603 16.7243C41.2025 19.6377 42.5481 19.6179 43.9069 19.9578L45.9756 20.6337C46.5188 20.8583 47.6382 21.5105 48.0763 21.5105Z" fill="#5e5e5e" fill-rule="nonzero" opacity="1" stroke="none"/>
<path d="M48.5268 20.7353C47.5799 20.8 46.5932 19.977 45.273 19.4817C43.3936 18.7767 42.3321 19.048 42.2888 18.0898C42.2747 17.7714 42.4861 17.4397 42.5212 17.1004C42.5607 16.715 42.5103 16.4695 42.5831 16.0764C43.02 13.7236 44.2026 7.96721 44.9389 6.27552C45.0632 5.98946 45.141 5.85384 45.26 5.51342C45.4781 4.88858 45.6323 4.38288 45.7741 3.82942C45.9217 3.25345 46.0662 2.70548 46.3764 2.24371C46.8754 1.50137 47.7315 1.93019 48.7501 2.38921C49.6189 2.78015 50.5227 2.85647 50.5227 3.94527C50.5227 5.94444 50.207 8.08635 49.9871 10.0092L49.6853 13.0455C49.6618 13.7385 49.5612 14.3902 49.4492 15.0744C49.2358 16.3767 49.3351 19.5147 48.5268 20.7353" fill="#adadad" fill-rule="evenodd" opacity="1" stroke="none"/>
<path d="M48.5268 20.7353C47.5799 20.8 46.5932 19.977 45.273 19.4817C43.3936 18.7767 42.3321 19.048 42.2888 18.0898C42.2747 17.7714 42.4861 17.4397 42.5212 17.1004C42.5607 16.715 42.5103 16.4695 42.5831 16.0764C43.02 13.7236 44.2026 7.96721 44.9389 6.27552C45.0632 5.98946 45.141 5.85384 45.26 5.51342C45.4781 4.88858 45.6323 4.38288 45.7741 3.82942C45.9217 3.25345 46.0662 2.70548 46.3764 2.24371C46.8754 1.50137 47.7315 1.93019 48.7501 2.38921C49.6189 2.78015 50.5227 2.85647 50.5227 3.94527C50.5227 5.94444 50.207 8.08635 49.9871 10.0092L49.6853 13.0455C49.6618 13.7385 49.5612 14.3902 49.4492 15.0744C49.2358 16.3767 49.3351 19.5147 48.5268 20.7353Z" fill="none" opacity="1" stroke="#5e5e5e" stroke-linecap="butt" stroke-linejoin="miter" stroke-width="0.216"/>
<path d="M57.9141 29.9053C58.1104 29.9053 58.4648 29.5731 58.7235 29.4226C59.3135 29.0811 59.2988 29.0509 59.8292 27.9045L62.4602 22.3232L65.1103 15.3511C65.2738 14.4583 63.2044 12.4498 62.7134 11.8535C62.2852 11.3325 61.9445 10.9223 61.3867 10.4413C59.9555 9.207 59.3562 10.1893 58.3423 11.8354C57.9557 12.4635 57.6319 12.8627 57.1786 13.5243L55.4767 16.0813C54.8211 17.057 53.4422 19.4647 52.894 20.5041C52.3367 21.5627 51.0362 23.2895 52.1302 24.4503C52.6221 24.9719 53.1096 25.2876 53.5868 25.7285C54.3507 26.434 54.9162 27.2511 55.5577 28.0236C56.1095 28.6874 56.9117 29.9053 57.9141 29.9053" fill="#0f9647" fill-rule="evenodd" opacity="1" stroke="none"/>
<path d="M57.9141 29.9053C58.1104 29.9053 58.4648 29.5731 58.7235 29.4226C59.3135 29.0811 59.2988 29.0509 59.8292 27.9045L62.4602 22.3232L65.1103 15.3511C65.2738 14.4583 63.2044 12.4498 62.7134 11.8535C62.2852 11.3325 61.9445 10.9223 61.3867 10.4413C59.9555 9.207 59.3562 10.1893 58.3423 11.8354C57.9557 12.4635 57.6319 12.8627 57.1786 13.5243L55.4767 16.0813C54.8211 17.057 53.4422 19.4647 52.894 20.5041C52.3367 21.5627 51.0362 23.2895 52.1302 24.4503C52.6221 24.9719 53.1096 25.2876 53.5868 25.7285C54.3507 26.434 54.9162 27.2511 55.5577 28.0236C56.1095 28.6874 56.9117 29.9053 57.9141 29.9053Z" fill="#5e5e5e" fill-rule="nonzero" opacity="1" stroke="none"/>
<path d="M64.0663 16.2285C63.2389 18.4154 60.3154 25.2321 59.5153 26.7201C59.1845 27.3362 58.7163 28.8011 58.0749 29.0125C57.4066 29.2321 56.6224 28.1285 55.9722 27.3806L55.1628 26.338C54.2112 24.9922 54.3278 25.41 53.2275 24.5507C52.828 24.2389 52.4015 24.0253 52.3942 23.4564C52.391 23.2033 53.6114 20.9554 53.9017 20.4267C55.5369 17.4458 57.3705 14.4792 59.2616 11.6613C59.4934 11.316 59.6001 10.79 60.2153 10.7438C61.0285 10.6824 61.4632 11.551 62.2956 12.4833L64.0351 14.4775C64.2736 14.8668 64.2287 15.7969 64.0663 16.2285" fill="#adadad" fill-rule="evenodd" opacity="1" stroke="none"/>
<path d="M64.0663 16.2285C63.2389 18.4154 60.3154 25.2321 59.5153 26.7201C59.1845 27.3362 58.7163 28.8011 58.0749 29.0125C57.4066 29.2321 56.6224 28.1285 55.9722 27.3806L55.1628 26.338C54.2112 24.9922 54.3278 25.41 53.2275 24.5507C52.828 24.2389 52.4015 24.0253 52.3942 23.4564C52.391 23.2033 53.6114 20.9554 53.9017 20.4267C55.5369 17.4458 57.3705 14.4792 59.2616 11.6613C59.4934 11.316 59.6001 10.79 60.2153 10.7438C61.0285 10.6824 61.4632 11.551 62.2956 12.4833L64.0351 14.4775C64.2736 14.8668 64.2287 15.7969 64.0663 16.2285Z" fill="none" opacity="1" stroke="#5e5e5e" stroke-linecap="butt" stroke-linejoin="miter" stroke-width="0.216"/>
<path d="M74.2144 32.5688C74.2144 31.2538 74.2144 31.6793 73.7239 30.6372C73.5199 30.204 73.3744 29.6313 73.2055 29.181C71.4801 24.5958 71.1947 25.4918 67.0035 27.8699C66.7678 28.0038 62.9879 30.6932 62.5515 31.077C61.8756 31.6705 61.1822 32.2783 60.4718 32.8307C59.0428 33.9404 60.4663 35.6008 60.918 36.7791L62.0746 39.4646C62.2863 39.9801 62.3688 40.454 62.563 40.9531C62.6636 41.21 62.7577 41.3868 62.8473 41.5582C63.2559 42.3428 63.7759 42.7579 64.8029 42.5811C65.364 42.4844 65.5598 42.0908 65.9841 41.758C66.3976 41.4346 66.6404 41.1793 67.0303 40.8444C67.9709 40.0367 69.8931 37.9244 70.7971 36.9383C71.1777 36.5232 74.2144 33.3617 74.2144 32.5688" fill="#0f9647" fill-rule="evenodd" opacity="1" stroke="none"/>
<path d="M74.2144 32.5688C74.2144 31.2538 74.2144 31.6793 73.7239 30.6372C73.5199 30.204 73.3744 29.6313 73.2055 29.181C71.4801 24.5958 71.1947 25.4918 67.0035 27.8699C66.7678 28.0038 62.9879 30.6932 62.5515 31.077C61.8756 31.6705 61.1822 32.2783 60.4718 32.8307C59.0428 33.9404 60.4663 35.6008 60.918 36.7791L62.0746 39.4646C62.2863 39.9801 62.3688 40.454 62.563 40.9531C62.6636 41.21 62.7577 41.3868 62.8473 41.5582C63.2559 42.3428 63.7759 42.7579 64.8029 42.5811C65.364 42.4844 65.5598 42.0908 65.9841 41.758C66.3976 41.4346 66.6404 41.1793 67.0303 40.8444C67.9709 40.0367 69.8931 37.9244 70.7971 36.9383C71.1777 36.5232 74.2144 33.3617 74.2144 32.5688Z" fill="#5e5e5e" fill-rule="nonzero" opacity="1" stroke="none"/>
<path d="M70.0801 27.004C70.0812 27.0034 70.148 26.7706 70.814 26.8146C71.1449 26.8365 71.2958 26.8854 71.4889 27.0688C71.6163 27.189 72.908 30.4571 73.0354 30.7766C73.4155 31.7315 73.848 32.4074 73.0261 33.2579L66.4112 40.5446C66.0727 40.863 65.778 41.0195 65.4482 41.3341C64.7854 41.9667 63.7431 42.1078 63.3811 40.8812L61.9735 37.0459C61.6229 36.2212 61.2686 35.4448 60.8814 34.63C60.3165 33.4407 61.0307 33.1596 61.8138 32.6462C62.4788 32.2097 63.1191 31.6189 63.7994 31.1231C65.6549 29.7702 65.7069 29.5352 67.8993 28.2119L70.0801 27.004" fill="#adadad" fill-rule="evenodd" opacity="1" stroke="none"/>
<path d="M70.0801 27.004C70.0812 27.0034 70.148 26.7706 70.814 26.8146C71.1449 26.8365 71.2958 26.8854 71.4889 27.0688C71.6163 27.189 72.908 30.4571 73.0354 30.7766C73.4155 31.7315 73.848 32.4074 73.0261 33.2579L66.4112 40.5446C66.0727 40.863 65.778 41.0195 65.4482 41.3341C64.7854 41.9667 63.7431 42.1078 63.3811 40.8812L61.9735 37.0459C61.6229 36.2212 61.2686 35.4448 60.8814 34.63C60.3165 33.4407 61.0307 33.1596 61.8138 32.6462C62.4788 32.2097 63.1191 31.6189 63.7994 31.1231C65.6549 29.7702 65.7069 29.5352 67.8993 28.2119L70.0801 27.004Z" fill="none" opacity="1" stroke="#5e5e5e" stroke-linecap="butt" stroke-linejoin="miter" stroke-width="0.216"/>
<path d="M67.0965 58.9137C67.7817 58.9137 68.1202 58.598 69.3643 58.3163C70.1004 58.1494 71.7792 57.3713 72.5093 57.0858L73.7791 56.5977C74.8564 56.1996 77.9085 55.141 78.3487 54.1478C78.7085 53.3362 78.4778 53.5158 78.4023 52.8448C78.2617 51.5847 78.5286 52.0284 78.1332 49.5548C77.4661 45.3835 77.9446 45.2051 75.6199 44.9602C74.0383 44.7933 74.0307 45.1908 72.6695 45.2918C72.0663 45.3368 71.6639 45.3445 71.0858 45.4461C70.5368 45.5438 70.0873 45.5351 69.5043 45.6311C69.2019 45.6811 69.0701 45.7426 68.7934 45.7975L66.6005 46.1978C66.192 46.3043 66.3013 46.4015 66.0159 46.4147C66.0126 46.4147 65.1343 46.0342 64.6558 47.3459C64.3807 48.1003 64.7209 49.6728 64.897 50.4674C65.3383 52.461 65.5718 54.7473 65.5702 56.8107C65.5702 57.6722 65.8474 58.4695 66.6322 58.8061C66.8739 58.9098 66.7049 58.9137 67.0965 58.9137" fill="#0f9647" fill-rule="evenodd" opacity="1" stroke="none"/>
<path d="M67.0965 58.9137C67.7817 58.9137 68.1202 58.598 69.3643 58.3163C70.1004 58.1494 71.7792 57.3713 72.5093 57.0858L73.7791 56.5977C74.8564 56.1996 77.9085 55.141 78.3487 54.1478C78.7085 53.3362 78.4778 53.5158 78.4023 52.8448C78.2617 51.5847 78.5286 52.0284 78.1332 49.5548C77.4661 45.3835 77.9446 45.2051 75.6199 44.9602C74.0383 44.7933 74.0307 45.1908 72.6695 45.2918C72.0663 45.3368 71.6639 45.3445 71.0858 45.4461C70.5368 45.5438 70.0873 45.5351 69.5043 45.6311C69.2019 45.6811 69.0701 45.7426 68.7934 45.7975L66.6005 46.1978C66.192 46.3043 66.3013 46.4015 66.0159 46.4147C66.0126 46.4147 65.1343 46.0342 64.6558 47.3459C64.3807 48.1003 64.7209 49.6728 64.897 50.4674C65.3383 52.461 65.5718 54.7473 65.5702 56.8107C65.5702 57.6722 65.8474 58.4695 66.6322 58.8061C66.8739 58.9098 66.7049 58.9137 67.0965 58.9137Z" fill="#5e5e5e" fill-rule="nonzero" opacity="1" stroke="none"/>
<path d="M66.6136 57.9484C66.257 56.9475 66.2953 54.6298 66.122 53.8414C65.907 52.8668 65.7539 50.754 65.6555 49.6899C65.597 49.0573 65.0982 47.6989 65.5992 47.1911C66.0585 46.7254 67.3601 46.7359 68.0693 46.5948L72.021 45.9556C73.3569 45.8195 74.5868 45.8036 75.9556 45.7585C77.1527 45.7201 77.1128 46.4822 77.1959 47.5803C77.2697 48.5527 77.4606 49.0678 77.4633 50.3383C77.4655 51.2695 77.7346 52.1975 77.8237 53.0979C77.9008 53.8809 77.7805 53.8326 76.7989 54.3773C76.6436 54.4635 76.4669 54.5469 76.304 54.6364L69.8187 57.3395C68.0218 57.9599 67.8145 58.263 66.6136 57.9484" fill="#adadad" fill-rule="evenodd" opacity="1" stroke="none"/>
<path d="M66.6136 57.9484C66.257 56.9475 66.2953 54.6298 66.122 53.8414C65.907 52.8668 65.7539 50.754 65.6555 49.6899C65.597 49.0573 65.0982 47.6989 65.5992 47.1911C66.0585 46.7254 67.3601 46.7359 68.0693 46.5948L72.021 45.9556C73.3569 45.8195 74.5868 45.8036 75.9556 45.7585C77.1527 45.7201 77.1128 46.4822 77.1959 47.5803C77.2697 48.5527 77.4606 49.0678 77.4633 50.3383C77.4655 51.2695 77.7346 52.1975 77.8237 53.0979C77.9008 53.8809 77.7805 53.8326 76.7989 54.3773C76.6436 54.4635 76.4669 54.5469 76.304 54.6364L69.8187 57.3395C68.0218 57.9599 67.8145 58.263 66.6136 57.9484Z" fill="none" opacity="1" stroke="#5e5e5e" stroke-linecap="butt" stroke-linejoin="miter" stroke-width="0.216"/>
<path d="M74.4206 76.3565C75.5515 76.3565 77.0187 76.6541 77.5087 75.2694C78.1376 73.492 77.9993 70.6846 78.2251 69.5222C78.5035 68.087 78.4532 68.059 78.0742 67.0657C77.8576 66.4991 78.0146 66.5897 77.477 66.3651L72.8123 64.3478C72.4251 64.1765 72.173 64.1134 71.8022 63.9377C71.1668 63.6373 70.6144 63.3908 69.9664 63.1492C68.7332 62.6896 66.6076 61.7914 65.7441 63.125C65.3913 63.6714 64.9686 70.4551 64.7931 71.5802C64.3299 74.5594 63.9411 74.7867 67.2775 75.271L69.5765 75.7212C69.9051 75.7866 70.382 75.7679 70.8009 75.8058C71.1597 75.8376 71.5277 75.97 71.9668 76.0331C72.395 76.0941 72.7729 76.049 73.1967 76.1056C73.5801 76.1566 73.9858 76.3565 74.4206 76.3565" fill="#0f9647" fill-rule="evenodd" opacity="1" stroke="none"/>
<path d="M74.4206 76.3565C75.5515 76.3565 77.0187 76.6541 77.5087 75.2694C78.1376 73.492 77.9993 70.6846 78.2251 69.5222C78.5035 68.087 78.4532 68.059 78.0742 67.0657C77.8576 66.4991 78.0146 66.5897 77.477 66.3651L72.8123 64.3478C72.4251 64.1765 72.173 64.1134 71.8022 63.9377C71.1668 63.6373 70.6144 63.3908 69.9664 63.1492C68.7332 62.6896 66.6076 61.7914 65.7441 63.125C65.3913 63.6714 64.9686 70.4551 64.7931 71.5802C64.3299 74.5594 63.9411 74.7867 67.2775 75.271L69.5765 75.7212C69.9051 75.7866 70.382 75.7679 70.8009 75.8058C71.1597 75.8376 71.5277 75.97 71.9668 76.0331C72.395 76.0941 72.7729 76.049 73.1967 76.1056C73.5801 76.1566 73.9858 76.3565 74.4206 76.3565Z" fill="#5e5e5e" fill-rule="nonzero" opacity="1" stroke="none"/>
<path d="M77.494 69.9659C77.395 70.4968 77.4535 70.8109 77.3272 71.3452L76.9099 74.0202C76.8082 75.4791 76.7152 75.9123 73.8141 75.4857C73.2448 75.4017 73.1918 75.2573 72.5651 75.2298C72.021 75.2062 71.5638 75.1842 71.1859 75.1661L68.456 74.8339C67.5979 74.6862 66.4605 74.6709 65.8622 74.2788C64.9243 73.665 65.101 73.3103 65.3317 72.1166L66.1241 66.6753C66.3374 64.0821 65.4488 62.5408 68.4292 63.5758C68.7879 63.7005 69.238 63.8515 69.5918 63.9602C69.8187 64.0305 69.9139 64.0738 70.149 64.154C71.205 64.5158 76.5736 66.4551 77.2758 67.2085C77.7105 67.6746 77.6383 69.1901 77.494 69.9659" fill="#adadad" fill-rule="evenodd" opacity="1" stroke="none"/>
<path d="M77.494 69.9659C77.395 70.4968 77.4535 70.8109 77.3272 71.3452L76.9099 74.0202C76.8082 75.4791 76.7152 75.9123 73.8141 75.4857C73.2448 75.4017 73.1918 75.2573 72.5651 75.2298C72.021 75.2062 71.5638 75.1842 71.1859 75.1661L68.456 74.8339C67.5979 74.6862 66.4605 74.6709 65.8622 74.2788C64.9243 73.665 65.101 73.3103 65.3317 72.1166L66.1241 66.6753C66.3374 64.0821 65.4488 62.5408 68.4292 63.5758C68.7879 63.7005 69.238 63.8515 69.5918 63.9602C69.8187 64.0305 69.9139 64.0738 70.149 64.154C71.205 64.5158 76.5736 66.4551 77.2758 67.2085C77.7105 67.6746 77.6383 69.1901 77.494 69.9659Z" fill="none" opacity="1" stroke="#5e5e5e" stroke-linecap="butt" stroke-linejoin="miter" stroke-width="0.216"/>
<path d="M113.33 106.157C113.33 106.444 114.5 107.517 114.755 107.79C116.053 107.79 115.793 105.908 115.863 105.301C115.924 104.764 116.056 103.672 116.232 103.243C116.616 102.301 116.689 101.414 117.432 100.95C117.717 101.174 117.552 101.021 117.668 101.48C117.742 101.776 117.786 101.933 117.862 102.165C118.36 103.692 118.64 104.161 119.325 105.629L120.266 105.631C121.171 104.236 121.589 104.792 121.796 103.776C121.952 103.015 121.394 103.141 120.73 101.476C120.257 100.293 119.29 97.9497 118.497 96.811C117.212 96.7061 116.88 97.1827 116.118 98.0898C114.318 100.233 113.923 101.34 113.601 104.514C113.557 104.952 113.33 105.974 113.33 106.157" fill="#0f9647" fill-rule="evenodd" opacity="1" stroke="none"/>
<path d="M113.33 106.157C113.33 106.444 114.5 107.517 114.755 107.79C116.053 107.79 115.793 105.908 115.863 105.301C115.924 104.764 116.056 103.672 116.232 103.243C116.616 102.301 116.689 101.414 117.432 100.95C117.717 101.174 117.552 101.021 117.668 101.48C117.742 101.776 117.786 101.933 117.862 102.165C118.36 103.692 118.64 104.161 119.325 105.629L120.266 105.631C121.171 104.236 121.589 104.792 121.796 103.776C121.952 103.015 121.394 103.141 120.73 101.476C120.257 100.293 119.29 97.9497 118.497 96.811C117.212 96.7061 116.88 97.1827 116.118 98.0898C114.318 100.233 113.923 101.34 113.601 104.514C113.557 104.952 113.33 105.974 113.33 106.157Z" fill="#5e5e5e" fill-rule="nonzero" opacity="1" stroke="#5e5e5e" stroke-linecap="butt" stroke-linejoin="miter" stroke-width="0.56693"/>
<path d="M114.167 106.266C114.167 105.874 114.309 105.08 114.338 104.727C114.515 102.602 114.504 103.1 115.215 101.029C115.494 100.219 117.103 97.6873 118.042 97.6231C118.549 98.5383 120.763 102.901 120.949 103.634C120.737 103.886 120.008 104.82 119.784 104.964C119.399 103.978 119.084 103.214 118.815 102.195C118.696 101.744 118.56 101.155 118.349 100.795C117.532 99.3965 116.722 100.262 116.254 101.301C115.909 102.065 115.716 101.935 115.536 102.987L115.197 105.064C115.139 105.834 115.372 106.613 114.755 107.044L114.167 106.266" fill="#fff200" fill-rule="evenodd" opacity="1" stroke="none"/>
<path d="M114.167 106.266C114.167 105.874 114.309 105.08 114.338 104.727C114.515 102.602 114.504 103.1 115.215 101.029C115.494 100.219 117.103 97.6873 118.042 97.6231C118.549 98.5383 120.763 102.901 120.949 103.634C120.737 103.886 120.008 104.82 119.784 104.964C119.399 103.978 119.084 103.214 118.815 102.195C118.696 101.744 118.56 101.155 118.349 100.795C117.532 99.3965 116.722 100.262 116.254 101.301C115.909 102.065 115.716 101.935 115.536 102.987L115.197 105.064C115.139 105.834 115.372 106.613 114.755 107.044L114.167 106.266Z" fill="#adadad" fill-rule="nonzero" opacity="1" stroke="none"/>
<path d="M127.638 105.815C126.614 105.849 123.861 105.148 123.812 106.254L124.015 107.473C124.015 108.198 123.269 108.869 124.295 109.322C125.594 109.897 128.999 107.747 130.147 107.144L130.147 104.95L129.639 102.833C129.151 101.328 128.569 100.244 127.757 98.9315C127.434 98.4082 126.995 97.5434 126.07 97.7625C125.718 97.8454 125.421 98.1145 125.271 98.4082C125.001 98.9381 125.193 99.0122 125.477 99.3427C125.962 99.9077 126.668 101.458 126.983 102.22C127.447 103.341 127.842 104.525 127.638 105.815" fill="#0f9647" fill-rule="evenodd" opacity="1" stroke="none"/>
<path d="M127.638 105.815C126.614 105.849 123.861 105.148 123.812 106.254L124.015 107.473C124.015 108.198 123.269 108.869 124.295 109.322C125.594 109.897 128.999 107.747 130.147 107.144L130.147 104.95L129.639 102.833C129.151 101.328 128.569 100.244 127.757 98.9315C127.434 98.4082 126.995 97.5434 126.07 97.7625C125.718 97.8454 125.421 98.1145 125.271 98.4082C125.001 98.9381 125.193 99.0122 125.477 99.3427C125.962 99.9077 126.668 101.458 126.983 102.22C127.447 103.341 127.842 104.525 127.638 105.815Z" fill="#5e5e5e" fill-rule="nonzero" opacity="1" stroke="#5e5e5e" stroke-linecap="butt" stroke-linejoin="miter" stroke-width="0.56693"/>
<path d="M124.851 108.628C124.618 108.655 124.777 108.775 124.635 108.531C124.509 108.314 124.572 107.12 124.572 106.815C124.572 106.392 124.678 106.484 125.123 106.469L127.537 106.517C130.083 106.463 127.071 100.613 126.482 99.653C125.701 98.3808 126.245 98.0387 127.039 99.2049C127.439 99.793 127.942 100.625 128.189 101.339C128.632 102.618 128.571 102.258 129.007 103.794C129.182 104.411 129.293 104.423 129.31 105.171C129.322 105.73 129.689 106.439 129.589 106.705L128.69 107.742L125.621 108.391L124.851 108.628" fill="#fff200" fill-rule="evenodd" opacity="1" stroke="none"/>
<path d="M124.851 108.628C124.618 108.655 124.777 108.775 124.635 108.531C124.509 108.314 124.572 107.12 124.572 106.815C124.572 106.392 124.678 106.484 125.123 106.469L127.537 106.517C130.083 106.463 127.071 100.613 126.482 99.653C125.701 98.3808 126.245 98.0387 127.039 99.2049C127.439 99.793 127.942 100.625 128.189 101.339C128.632 102.618 128.571 102.258 129.007 103.794C129.182 104.411 129.293 104.423 129.31 105.171C129.322 105.73 129.689 106.439 129.589 106.705L128.69 107.742L125.621 108.391L124.851 108.628Z" fill="#adadad" fill-rule="nonzero" opacity="1" stroke="none"/>
<path d="M117.604 116.685C117.604 117.787 118.093 118.386 118.829 118.848C120.817 120.097 122.946 120.134 124.963 119.137C125.984 118.631 128.193 117.323 127.658 115.91C126.977 114.112 125.193 116.409 124.503 116.691C122.768 117.399 123.471 117.22 120.484 116.775C120.359 116.254 120.727 115.698 121.008 114.862C121.272 114.076 121.669 112.667 121.942 112.043C122.254 111.33 122.357 111.006 121.347 110.63C119.593 109.977 119.559 110.085 118.553 113.279C118.324 114.007 117.604 115.924 117.604 116.685" fill="#0f9647" fill-rule="evenodd" opacity="1" stroke="none"/>
<path d="M117.604 116.685C117.604 117.787 118.093 118.386 118.829 118.848C120.817 120.097 122.946 120.134 124.963 119.137C125.984 118.631 128.193 117.323 127.658 115.91C126.977 114.112 125.193 116.409 124.503 116.691C122.768 117.399 123.471 117.22 120.484 116.775C120.359 116.254 120.727 115.698 121.008 114.862C121.272 114.076 121.669 112.667 121.942 112.043C122.254 111.33 122.357 111.006 121.347 110.63C119.593 109.977 119.559 110.085 118.553 113.279C118.324 114.007 117.604 115.924 117.604 116.685Z" fill="#5e5e5e" fill-rule="nonzero" opacity="1" stroke="#5e5e5e" stroke-linecap="butt" stroke-linejoin="miter" stroke-width="0.56693"/>
<path d="M119.741 116.027C119.741 117.429 119.655 117.58 121.114 117.99C121.866 118.202 122.675 118.192 123.412 118.055L126.561 116.184L126.868 116.259C126.824 116.672 126.491 117.069 126.154 117.482C125.627 118.127 124.289 118.788 123.582 118.857C122.697 118.944 120.296 119.006 119.646 118.469L118.257 117.014L120.146 111.228C122.829 110.538 119.741 114.46 119.741 116.027" fill="#fff200" fill-rule="evenodd" opacity="1" stroke="none"/>
<path d="M119.741 116.027C119.741 117.429 119.655 117.58 121.114 117.99C121.866 118.202 122.675 118.192 123.412 118.055L126.561 116.184L126.868 116.259C126.824 116.672 126.491 117.069 126.154 117.482C125.627 118.127 124.289 118.788 123.582 118.857C122.697 118.944 120.296 119.006 119.646 118.469L118.257 117.014L120.146 111.228C122.829 110.538 119.741 114.46 119.741 116.027Z" fill="#adadad" fill-rule="nonzero" opacity="1" stroke="none"/>
<path d="M36.2709 24.8692L44.5785 24.8692C45.5436 24.8692 46.0322 22.9057 44.3421 22.3803C42.5483 21.8224 40.194 21.7357 38.2196 22.1425C37.2916 22.3336 35.581 22.7712 35.2804 23.7996C35.0501 24.587 35.727 24.8692 36.2709 24.8692" fill="#5e5e5e" fill-rule="evenodd" opacity="1" stroke="#5e5e5e" stroke-linecap="butt" stroke-linejoin="miter" stroke-width="0.56693"/>
<path d="M36.2709 24.8692L44.5785 24.8692C45.5436 24.8692 46.0322 22.9057 44.3421 22.3803C42.5483 21.8224 40.194 21.7357 38.2196 22.1425C37.2916 22.3336 35.581 22.7712 35.2804 23.7996C35.0501 24.587 35.727 24.8692 36.2709 24.8692Z" fill="none" opacity="1" stroke="#5e5e5e" stroke-linecap="butt" stroke-linejoin="miter" stroke-width="0.56693"/>
<path d="M39.5502 99.2093C41.0741 99.2093 44.9184 99.2307 45.4934 97.7406C45.6791 97.2585 45.5853 97.544 45.4516 97.1761C44.9553 95.8084 45.176 96.224 40.7526 96.224C39.7119 96.224 38.6164 96.2575 37.5828 96.2218C36.7184 96.1927 35.0813 95.9934 35.23 97.0075C35.3272 97.6681 36.4431 98.3467 36.9562 98.5532C37.3414 98.708 37.8694 98.8123 38.2463 98.9134C38.4227 98.9611 39.4237 99.2093 39.5502 99.2093" fill="#5e5e5e" fill-rule="evenodd" opacity="1" stroke="#5e5e5e" stroke-linecap="butt" stroke-linejoin="miter" stroke-width="0.56693"/>
<path d="M39.5502 99.2093C41.0741 99.2093 44.9184 99.2307 45.4934 97.7406C45.6791 97.2585 45.5853 97.544 45.4516 97.1761C44.9553 95.8084 45.176 96.224 40.7526 96.224C39.7119 96.224 38.6164 96.2575 37.5828 96.2218C36.7184 96.1927 35.0813 95.9934 35.23 97.0075C35.3272 97.6681 36.4431 98.3467 36.9562 98.5532C37.3414 98.708 37.8694 98.8123 38.2463 98.9134C38.4227 98.9611 39.4237 99.2093 39.5502 99.2093Z" fill="none" opacity="1" stroke="#5e5e5e" stroke-linecap="butt" stroke-linejoin="miter" stroke-width="0.56693"/>
<path d="M120.986 95.9445C118.386 95.9445 119.774 97.667 121.064 100.164C121.292 100.607 121.935 101.997 122.083 102.525C122.24 103.081 122.328 103.25 122.74 103.619C123.176 104.01 123.437 104.01 124.069 104.051C124.604 104.086 124.992 103.953 125.209 103.597C125.645 102.882 124.975 101.615 124.641 100.952C124.184 100.047 122.964 96.8538 122.321 96.3778C122.124 96.2323 121.263 95.9445 120.986 95.9445" fill="#5e5e5e" fill-rule="evenodd" opacity="1" stroke="#5e5e5e" stroke-linecap="butt" stroke-linejoin="miter" stroke-width="0.56693"/>
<path d="M120.986 95.9445C118.386 95.9445 119.774 97.667 121.064 100.164C121.292 100.607 121.935 101.997 122.083 102.525C122.24 103.081 122.328 103.25 122.74 103.619C123.176 104.01 123.437 104.01 124.069 104.051C124.604 104.086 124.992 103.953 125.209 103.597C125.645 102.882 124.975 101.615 124.641 100.952C124.184 100.047 122.964 96.8538 122.321 96.3778C122.124 96.2323 121.263 95.9445 120.986 95.9445Z" fill="none" opacity="1" stroke="#5e5e5e" stroke-linecap="butt" stroke-linejoin="miter" stroke-width="0.56693"/>
<path d="M21.5349 9.75772C21.5349 10.1404 22.1548 11.5878 22.3915 12.0556C22.5483 12.3652 25.1805 16.4597 25.7814 16.2971L26.738 15.68C26.738 15.3077 26.6214 15.0634 26.5788 14.7707C26.5054 14.2645 26.5821 12.4943 26.3832 11.5724C26.3133 11.249 26.0194 9.87797 25.9333 9.70611L24.4653 8.91819C24.2694 8.86933 21.5349 8.83583 21.5349 9.75772" fill="#5e5e5e" fill-rule="evenodd" opacity="1" stroke="#5e5e5e" stroke-linecap="butt" stroke-linejoin="miter" stroke-width="0.56693"/>
<path d="M21.5349 9.75772C21.5349 10.1404 22.1548 11.5878 22.3915 12.0556C22.5483 12.3652 25.1805 16.4597 25.7814 16.2971L26.738 15.68C26.738 15.3077 26.6214 15.0634 26.5788 14.7707C26.5054 14.2645 26.5821 12.4943 26.3832 11.5724C26.3133 11.249 26.0194 9.87797 25.9333 9.70611L24.4653 8.91819C24.2694 8.86933 21.5349 8.83583 21.5349 9.75772Z" fill="none" opacity="1" stroke="#5e5e5e" stroke-linecap="butt" stroke-linejoin="miter" stroke-width="0.56693"/>
<path d="M13.2303 24.8692C11.4987 25.3776 12.0217 26.2721 13.2239 27.0649C13.9143 27.5196 14.9824 28.7215 15.9255 28.6852C16.6115 28.6594 16.9 28.2037 16.7505 27.4811C16.7016 27.2439 16.6742 27.239 16.6413 27.0501C16.4831 26.1507 16.1866 24.9971 15.0264 24.817C14.5383 24.7407 13.5856 24.7643 13.2303 24.8692" fill="#0f9647" fill-rule="evenodd" opacity="1" stroke="none"/>
<path d="M13.2303 24.8692C11.4987 25.3776 12.0217 26.2721 13.2239 27.0649C13.9143 27.5196 14.9824 28.7215 15.9255 28.6852C16.6115 28.6594 16.9 28.2037 16.7505 27.4811C16.7016 27.2439 16.6742 27.239 16.6413 27.0501C16.4831 26.1507 16.1866 24.9971 15.0264 24.817C14.5383 24.7407 13.5856 24.7643 13.2303 24.8692Z" fill="#5e5e5e" fill-rule="nonzero" opacity="1" stroke="#5e5e5e" stroke-linecap="butt" stroke-linejoin="miter" stroke-width="0.56693"/>
<path d="M63.1585 106.924C63.1585 107.418 63.4587 107.807 63.8344 108.001C65.1764 108.554 65.6735 108.558 67.0582 108.102C67.8479 107.842 68.2307 107.021 68.4746 106.207C68.6753 105.536 68.5003 105.511 68.0803 105.085C67.4383 105.085 65.0288 106.065 64.1718 106.304C63.59 106.465 63.1585 106.371 63.1585 106.924" fill="#5e5e5e" fill-rule="evenodd" opacity="1" stroke="none"/>
<path d="M132.005 116.25C131.975 115.796 131.7 115.416 131.477 115.04C131.144 114.482 131.019 114.569 130.377 114.409C129.721 114.246 127.806 113.939 127.666 114.959C127.581 115.585 127.704 115.2 127.741 115.271C127.987 115.743 127.436 114.806 127.888 115.466C127.902 115.485 127.921 115.511 127.934 115.531C128.156 115.869 128.453 116.577 129.324 116.728C130.668 116.96 131.22 117.049 132.005 116.25" fill="#0f9647" fill-rule="evenodd" opacity="1" stroke="none"/>
<path d="M132.005 116.25C131.975 115.796 131.7 115.416 131.477 115.04C131.144 114.482 131.019 114.569 130.377 114.409C129.721 114.246 127.806 113.939 127.666 114.959C127.581 115.585 127.704 115.2 127.741 115.271C127.987 115.743 127.436 114.806 127.888 115.466C127.902 115.485 127.921 115.511 127.934 115.531C128.156 115.869 128.453 116.577 129.324 116.728C130.668 116.96 131.22 117.049 132.005 116.25Z" fill="#5e5e5e" fill-rule="nonzero" opacity="1" stroke="#5e5e5e" stroke-linecap="butt" stroke-linejoin="miter" stroke-width="0.56693"/>
</g>
</svg>
